<?xml version="1.0" encoding="UTF-8" standalone="no"?>
<!-- Created with Inkscape (http://www.inkscape.org/) -->

<svg
   xmlns:dc="http://purl.org/dc/elements/1.1/"
   xmlns:cc="http://creativecommons.org/ns#"
   xmlns:rdf="http://www.w3.org/1999/02/22-rdf-syntax-ns#"
   xmlns:svg="http://www.w3.org/2000/svg"
   xmlns="http://www.w3.org/2000/svg"
   xmlns:sodipodi="http://sodipodi.sourceforge.net/DTD/sodipodi-0.dtd"
   xmlns:inkscape="http://www.inkscape.org/namespaces/inkscape"
   width="31.75mm"
   height="31.75mm"
   viewBox="0 0 31.75 31.75"
   version="1.1"
   id="svg8"
   inkscape:version="0.92.1 r15371"
   sodipodi:docname="1_созд_продв_сайтов.svg">
  <defs
     id="defs2" />
  <sodipodi:namedview
     id="base"
     pagecolor="#ffffff"
     bordercolor="#666666"
     borderopacity="1.0"
     inkscape:pageopacity="0.0"
     inkscape:pageshadow="2"
     inkscape:zoom="1.3032895"
     inkscape:cx="-89.1692"
     inkscape:cy="38.650702"
     inkscape:document-units="mm"
     inkscape:current-layer="layer1"
     showgrid="false"
     inkscape:window-width="1920"
     inkscape:window-height="1018"
     inkscape:window-x="-8"
     inkscape:window-y="-8"
     inkscape:window-maximized="1" />
  <metadata
     id="metadata5">
    <rdf:RDF>
      <cc:Work
         rdf:about="">
        <dc:format>image/svg+xml</dc:format>
        <dc:type
           rdf:resource="http://purl.org/dc/dcmitype/StillImage" />
        <dc:title></dc:title>
      </cc:Work>
    </rdf:RDF>
  </metadata>
  <g
     inkscape:label="Layer 1"
     inkscape:groupmode="layer"
     id="layer1"
     transform="translate(-114.90475,-120.8253)">
    <circle
       style="fill:#ffffff;stroke-width:0.26458332"
       cx="130.77975"
       cy="136.7003"
       r="15.875"
       id="circle4511" />
    <path
       style="fill:#caac7d;stroke-width:0.26458332"
       inkscape:connector-curvature="0"
       d="m 139.42423,127.70489 h -17.28841 c -0.1942,0 -0.35136,0.15732 -0.35136,0.35142 v 13.14481 c 0,0.19421 0.15716,0.35137 0.35136,0.35137 h 0.63368 c -0.18335,0.37306 -0.28363,0.78952 -0.28363,1.22211 v 0.98848 c 0,0.0143 10e-4,0.0283 0.003,0.0421 -0.431,0.37412 -0.70458,0.92525 -0.70458,1.53961 0,0.19394 0.15743,0.35137 0.35137,0.35137 h 5.08396 2.8239 2.81543 1.4822 c 0.19394,0 0.35137,-0.15743 0.35137,-0.35137 v -1.40785 c 0,-0.19393 -0.15743,-0.35136 -0.35137,-0.35136 h -1.53511 v -0.81095 c 0,-0.43286 -0.10002,-0.84905 -0.28337,-1.22211 h 6.90192 c 0.19394,0 0.35137,-0.15716 0.35137,-0.35137 v -13.14487 c 0,-0.19407 -0.15743,-0.35136 -0.35137,-0.35136 z m -5.43481,16.58339 v 0.70512 h -0.81465 c -0.0529,-0.26035 -0.16378,-0.50007 -0.31829,-0.70512 z m -11.50223,-3.43852 v -1.90051 h 1.39806 c -0.0706,0.47282 -0.10742,0.95039 -0.10742,1.42717 v 0.0572 c -0.18944,0.11932 -0.36142,0.25929 -0.51382,0.41645 -0.001,0 -0.003,-2.6e-4 -0.004,-2.6e-4 z m 1.29064,0.47969 v 1.97802 c -0.20505,0.005 -0.40296,0.0392 -0.58923,0.10028 v -0.63315 c 0,-0.55033 0.2167,-1.06548 0.58923,-1.44515 z m 5.94915,3.66395 h -2.50772 -4.68577 c 0.15478,-0.56648 0.6739,-0.98425 1.28879,-0.98425 0.18759,0 0.36936,0.0386 0.54028,0.1143 0.0907,0.0405 0.19447,0.0405 0.28522,0 0.091,-0.0402 0.16034,-0.11721 0.19129,-0.21167 0.43286,-1.32186 1.65894,-2.21007 3.05065,-2.21007 1.2356,0 2.34103,0.68977 2.88475,1.80023 0.0103,0.0212 0.0225,0.0408 0.0365,0.059 v 0.14579 c -0.54874,0.2151 -0.96414,0.69744 -1.084,1.28667 z m 1.03929,-8.65161 h -0.13097 c -0.0267,-0.0585 -0.0534,-0.11721 -0.0812,-0.17542 -0.13837,-0.28787 -0.29236,-0.56859 -0.45905,-0.84164 l 0.67125,-0.67125 z m 0.0447,4.03569 v 0.25849 1.67217 c -0.23945,-0.26829 -0.51567,-0.50403 -0.82232,-0.69929 -0.6268,-0.399 -1.35255,-0.61013 -2.09894,-0.61013 -1.43563,0 -2.726,0.77549 -3.40916,1.99046 v -2.35321 -0.25955 c 0,-2.6588 1.14988,-5.14271 3.16468,-6.85943 2.01533,1.71672 3.16574,4.20089 3.16574,6.86049 z m -0.35639,4.61592 c 0.14526,-0.41037 0.53684,-0.70512 0.99642,-0.70512 0.45932,0 0.85116,0.29475 0.99616,0.70512 z m 2.41935,-7.94888 c 2.6e-4,0 5.3e-4,0 7.9e-4,0 0,0 2.7e-4,0 5.3e-4,0 h 3.51261 c 2.6e-4,0 5.3e-4,0 5.3e-4,0 2.6e-4,0 5.3e-4,0 7.9e-4,0 h 2.68341 v 1.202 h -7.79727 c -0.0918,-0.40772 -0.20982,-0.80936 -0.35269,-1.202 z m -1.40494,-0.70273 v -2.39107 l 1.0541,-1.05418 v 3.44525 z m 1.7571,0 v -3.97328 l 1.0541,1.05415 v 2.91913 z m 1.75683,0 v -3.05769 l 1.0541,-1.05415 v 4.11184 z m -3.46921,7.24376 v -0.53314 -1.72296 c 0.0294,0.0299 0.0574,0.0611 0.0849,0.0926 0.002,0.002 0.004,0.005 0.006,0.007 0.3167,0.36803 0.49847,0.84164 0.49847,1.34567 v 0.81095 z m 0.51382,-2.73579 c -0.1524,-0.1569 -0.32438,-0.29713 -0.51382,-0.41619 v -0.0561 c 0,-0.47731 -0.0368,-0.95489 -0.10742,-1.42823 h 7.66656 v 1.90051 z m 7.04532,-4.50797 h -0.576 v -2.54024 c 0,-0.19407 -0.15742,-0.3514 -0.35136,-0.3514 -0.19421,0 -0.35137,0.15733 -0.35137,0.3514 v 2.54024 h -1.05436 v -4.73057 c 0,-0.026 -0.003,-0.0513 -0.008,-0.0756 l 1.06257,-1.06257 v 0.41936 c 0,0.19408 0.15716,0.3514 0.35137,0.3514 0.19394,0 0.35136,-0.15732 0.35136,-0.3514 v -1.26769 c 0,-0.1941 -0.15742,-0.35142 -0.35136,-0.35142 h -1.26762 c -0.19421,0 -0.35163,0.15732 -0.35163,0.35142 0,0.19407 0.15742,0.35139 0.35163,0.35139 h 0.4191 l -2.73473,2.73484 -1.17502,-1.1752 c -0.13732,-0.13721 -0.35983,-0.13721 -0.49715,0 l -3.19061,3.19061 c -0.51991,-0.72641 -1.13903,-1.38287 -1.83489,-1.93929 -0.12832,-0.10266 -0.31062,-0.10266 -0.43894,3e-5 -1.13109,0.90495 -2.06084,2.07359 -2.68843,3.37931 -0.31803,0.66172 -0.55986,1.36207 -0.72126,2.08015 h -1.52876 v -9.83882 h 16.58567 z"
       id="path4515" />
    <path
       style="fill:#caac7d;stroke-width:0.26458332"
       inkscape:connector-curvature="0"
       d="m 127.64577,136.34179 c -1.12368,0 -2.03808,0.91413 -2.03808,2.03808 0,1.12369 0.9144,2.03782 2.03808,2.03782 1.12369,0 2.03809,-0.91413 2.03809,-2.03782 0,-1.12395 -0.9144,-2.03808 -2.03809,-2.03808 z m 0,3.37317 c -0.73633,0 -1.33535,-0.59902 -1.33535,-1.33509 0,-0.73633 0.59902,-1.33535 1.33535,-1.33535 0.73634,0 1.33535,0.59902 1.33535,1.33535 0,0.73607 -0.59901,1.33509 -1.33535,1.33509 z"
       id="path4517" />
    <path
       style="fill:#caac7d;stroke-width:0.26458332"
       inkscape:connector-curvature="0"
       d="m 126.80069,130.88438 h -3.23268 c -0.19394,0 -0.35136,0.15733 -0.35136,0.3514 0,0.1941 0.15742,0.35142 0.35136,0.35142 h 3.23295 c 0.19394,0 0.35136,-0.15732 0.35136,-0.35142 0,-0.19407 -0.15742,-0.3514 -0.35163,-0.3514 z"
       id="path4519" />
    <path
       style="fill:#caac7d;stroke-width:0.26458332"
       inkscape:connector-curvature="0"
       d="m 126.52315,132.39296 c -0.0654,-0.0654 -0.15584,-0.10298 -0.24845,-0.10298 -0.0923,0 -0.18309,0.0376 -0.24844,0.10298 -0.0653,0.0654 -0.10292,0.156 -0.10292,0.24842 0,0.0924 0.0376,0.18309 0.10292,0.24844 0.0654,0.0654 0.1561,0.10298 0.24844,0.10298 0.0926,0 0.18309,-0.0376 0.24845,-0.10298 0.0659,-0.0653 0.10318,-0.15602 0.10318,-0.24844 0,-0.0924 -0.0373,-0.18307 -0.10318,-0.24842 z"
       id="path4521" />
    <path
       style="fill:#caac7d;stroke-width:0.26458332"
       inkscape:connector-curvature="0"
       d="m 124.74991,132.28996 h -1.1819 c -0.19394,0 -0.35136,0.15732 -0.35136,0.35139 0,0.19407 0.15742,0.35139 0.35136,0.35139 h 1.1819 c 0.1942,0 0.35136,-0.15732 0.35136,-0.35139 0,-0.19407 -0.15716,-0.35139 -0.35136,-0.35139 z"
       id="path4523" />
    <path
       style="fill:#caac7d;stroke-width:0.26458332"
       inkscape:connector-curvature="0"
       d="m 125.51244,129.47881 h -1.94443 c -0.19394,0 -0.35136,0.15732 -0.35136,0.35142 0,0.19407 0.15742,0.35139 0.35136,0.35139 h 1.94443 c 0.19394,0 0.35136,-0.15732 0.35136,-0.35139 0,-0.1941 -0.15742,-0.35142 -0.35136,-0.35142 z"
       id="path4525" />
    <path
       style="fill:#caac7d;stroke-width:0.26458332"
       inkscape:connector-curvature="0"
       d="m 138.39394,132.39296 c -0.0653,-0.0654 -0.1561,-0.10298 -0.24844,-0.10298 -0.0923,0 -0.18309,0.0376 -0.24845,0.10298 -0.0653,0.0654 -0.10292,0.156 -0.10292,0.24842 0,0.0924 0.0376,0.18309 0.10292,0.24844 0.0654,0.0654 0.15611,0.10298 0.24845,0.10298 0.0923,0 0.18309,-0.0376 0.24844,-0.10298 0.0654,-0.0653 0.10292,-0.15602 0.10292,-0.24844 0,-0.0924 -0.0376,-0.18307 -0.10292,-0.24842 z"
       id="path4527" />
  </g>
</svg>
