<?xml version="1.0" encoding="UTF-8" standalone="no"?>
<svg
   xmlns:dc="http://purl.org/dc/elements/1.1/"
   xmlns:cc="http://creativecommons.org/ns#"
   xmlns:rdf="http://www.w3.org/1999/02/22-rdf-syntax-ns#"
   xmlns:svg="http://www.w3.org/2000/svg"
   xmlns="http://www.w3.org/2000/svg"
   xmlns:sodipodi="http://sodipodi.sourceforge.net/DTD/sodipodi-0.dtd"
   xmlns:inkscape="http://www.inkscape.org/namespaces/inkscape"
   width="120"
   height="120"
   viewBox="0 0 120 120"
   version="1.1"
   id="svg4612"
   sodipodi:docname="2_раскрутка_соцсетей.svg"
   style="fill:none"
   inkscape:version="0.92.1 r15371">
  <metadata
     id="metadata4616">
    <rdf:RDF>
      <cc:Work
         rdf:about="">
        <dc:format>image/svg+xml</dc:format>
        <dc:type
           rdf:resource="http://purl.org/dc/dcmitype/StillImage" />
        <dc:title></dc:title>
      </cc:Work>
    </rdf:RDF>
  </metadata>
  <sodipodi:namedview
     pagecolor="#ffffff"
     bordercolor="#666666"
     borderopacity="1"
     objecttolerance="10"
     gridtolerance="10"
     guidetolerance="10"
     inkscape:pageopacity="0"
     inkscape:pageshadow="2"
     inkscape:window-width="1384"
     inkscape:window-height="850"
     id="namedview4614"
     showgrid="false"
     inkscape:zoom="0.78666667"
     inkscape:cx="-168.81356"
     inkscape:cy="17.000001"
     inkscape:window-x="0"
     inkscape:window-y="0"
     inkscape:window-maximized="0"
     inkscape:current-layer="svg4612" />
  <circle
     cx="60"
     cy="60"
     r="60"
     id="circle4587"
     style="fill:#ffffff" />
  <g
     clip-path="url(#clip0)"
     id="g4605"
     transform="translate(-125,-47)">
    <path
       d="m 213.621,73 h -20.586 c -2.966,0 -5.379,2.4129 -5.379,5.3789 v 16.7343 c 0,2.966 2.413,5.3788 5.379,5.3788 h 5.898 l 3.366,4.275 c 0.251,0.32 0.636,0.506 1.043,0.506 10e-4,0 0.002,0 0.003,0 0.408,0 0.793,-0.188 1.044,-0.51 l 3.337,-4.271 h 5.895 c 2.966,0 5.379,-2.4128 5.379,-5.3788 V 78.3789 C 219,75.4129 216.587,73 213.621,73 Z m 0,24.8359 h -6.543 c -0.409,0 -0.795,0.1882 -1.046,0.5104 l -2.694,3.4467 -2.716,-3.4504 c -0.252,-0.32 -0.637,-0.5066 -1.044,-0.5066 h -6.543 c -1.501,0 -2.723,-1.2213 -2.723,-2.7226 V 78.379 c 0,-1.5013 1.222,-2.7226 2.723,-2.7226 h 20.586 c 1.501,0 2.723,1.2213 2.723,2.7226 v 16.7342 0 c 0,1.5013 -1.222,2.7227 -2.723,2.7227 z"
       id="path4591"
       inkscape:connector-curvature="0"
       style="fill:#caac7d" />
    <path
       d="m 181.955,86.272 c -0.247,-0.2471 -0.59,-0.3892 -0.939,-0.3892 -0.35,0 -0.692,0.1421 -0.939,0.3892 -0.247,0.247 -0.389,0.5896 -0.389,0.9389 0,0.3493 0.142,0.692 0.389,0.939 0.247,0.247 0.589,0.3892 0.939,0.3892 0.349,0 0.692,-0.1422 0.939,-0.3892 0.247,-0.247 0.389,-0.5897 0.389,-0.939 0,-0.3493 -0.142,-0.6919 -0.389,-0.9389 z"
       id="path4593"
       inkscape:connector-curvature="0"
       style="fill:#caac7d" />
    <path
       d="m 181.017,82.8281 c 0.733,0 1.328,-0.5946 1.328,-1.3281 V 78.3789 C 182.345,75.4129 179.932,73 176.966,73 H 156.38 c -2.966,0 -5.379,2.4129 -5.379,5.3789 v 16.7343 c 0,2.966 2.413,5.3788 5.379,5.3788 h 5.898 l 3.365,4.275 c 0.252,0.32 0.637,0.506 1.044,0.506 10e-4,0 10e-4,0 0.002,0 0.408,0 0.793,-0.188 1.044,-0.51 l 3.338,-4.271 h 5.895 c 2.966,0 5.379,-2.4128 5.379,-5.3788 V 92.136 c 0,-0.7335 -0.595,-1.3281 -1.328,-1.3281 -0.734,0 -1.329,0.5946 -1.329,1.3281 v 2.9772 c 0,1.5013 -1.221,2.7227 -2.722,2.7227 h -6.543 c -0.409,0 -0.795,0.1882 -1.047,0.5104 l -2.693,3.4467 -2.717,-3.4504 c -0.252,-0.32 -0.636,-0.5066 -1.043,-0.5066 h -6.543 c -1.502,0 -2.723,-1.2213 -2.723,-2.7226 V 78.379 c 0,-1.5013 1.221,-2.7226 2.723,-2.7226 h 20.586 c 1.501,0 2.722,1.2213 2.722,2.7226 V 81.5 c 0,0.7335 0.595,1.3281 1.329,1.3281 z"
       id="path4595"
       inkscape:connector-curvature="0"
       style="fill:#caac7d" />
    <path
       d="m 207.375,124.735 c 0,-1.865 -1.189,-3.456 -2.849,-4.058 0.288,-0.578 0.451,-1.229 0.451,-1.917 0,-2.38 -1.936,-4.315 -4.316,-4.315 h -8.674 l 1.16,-3.447 c 0.577,-1.712 0.439,-3.539 -0.388,-5.146 -0.827,-1.606 -2.234,-2.78 -3.963,-3.306 l -1.616,-0.491 c -0.677,-0.206 -1.395,0.154 -1.636,0.818 l -2.54,7.022 c -0.687,1.899 -2.042,3.477 -3.816,4.442 l -1.636,0.891 c -0.208,-0.461 -0.671,-0.783 -1.211,-0.783 h -12.387 c -0.734,0 -1.328,0.594 -1.328,1.328 v 23.899 c 0,0.733 0.594,1.328 1.328,1.328 h 12.388 c 0.691,0 1.259,-0.529 1.321,-1.204 l 0.506,0.198 c 1.702,0.667 3.492,1.006 5.321,1.006 h 15.088 c 2.38,0 4.315,-1.936 4.315,-4.315 0,-0.698 -0.167,-1.357 -0.462,-1.941 1.626,-0.619 2.785,-2.193 2.785,-4.034 0,-0.719 -0.178,-1.397 -0.491,-1.994 1.555,-0.654 2.65,-2.192 2.65,-3.981 z m -32.362,13.609 h -9.731 v -21.243 h 4.084 v 13.558 c 0,0.733 0.595,1.328 1.328,1.328 0.734,0 1.328,-0.595 1.328,-1.328 v -13.558 h 2.991 z m 28.046,-11.95 h -2.159 -6.305 c -0.734,0 -1.328,0.595 -1.328,1.328 0,0.734 0.594,1.328 1.328,1.328 h 6.305 c 0.915,0 1.659,0.745 1.659,1.66 0,0.915 -0.744,1.659 -1.659,1.659 h -6.305 c -0.734,0 -1.328,0.595 -1.328,1.328 0,0.734 0.594,1.328 1.328,1.328 h 3.983 c 0.915,0 1.659,0.745 1.659,1.66 0,0.915 -0.744,1.659 -1.659,1.659 H 183.49 c -1.495,0 -2.959,-0.277 -4.351,-0.823 l -1.47,-0.576 v -18.756 l 2.789,-1.519 c 2.344,-1.276 4.135,-3.362 5.044,-5.872 l 2.111,-5.835 0.411,0.124 c 1.035,0.315 1.878,1.019 2.373,1.981 0.496,0.962 0.578,2.057 0.233,3.082 l -1.751,5.199 c -0.137,0.405 -0.069,0.851 0.18,1.198 0.249,0.348 0.651,0.554 1.079,0.554 h 10.523 c 0.915,0 1.659,0.744 1.659,1.659 0,0.915 -0.744,1.659 -1.659,1.659 h -6.066 c -0.734,0 -1.329,0.595 -1.329,1.328 0,0.734 0.595,1.328 1.329,1.328 l 8.464,10e-4 c 0.915,0 1.659,0.744 1.659,1.659 0,0.915 -0.744,1.659 -1.659,1.659 z"
       id="path4597"
       inkscape:connector-curvature="0"
       style="fill:#caac7d" />
    <path
       d="m 170.694,133.352 c -0.733,0 -1.328,0.594 -1.328,1.328 v 0.017 c 0,0.734 0.595,1.329 1.328,1.329 0.734,0 1.328,-0.595 1.328,-1.329 v -0.017 c 0,-0.734 -0.595,-1.328 -1.328,-1.328 z"
       id="path4599"
       inkscape:connector-curvature="0"
       style="fill:#caac7d" />
    <path
       d="m 169.848,82.8281 h 0.432 c 0.734,0 1.328,-0.5946 1.328,-1.3281 0,-0.7335 -0.594,-1.3281 -1.328,-1.3281 h -0.432 c -2.325,0 -4.216,1.8916 -4.216,4.2168 v 1.1002 c -0.692,0.0458 -1.24,0.6199 -1.24,1.3236 0,0.7036 0.548,1.2779 1.24,1.3236 v 3.9999 c 0,0.7335 0.594,1.3281 1.328,1.3281 0.733,0 1.328,-0.5946 1.328,-1.3281 v -3.9954 h 1.594 c 0.733,0 1.328,-0.5946 1.328,-1.3281 0,-0.7335 -0.595,-1.3281 -1.328,-1.3281 h -1.594 v -1.0957 c 0,-0.8605 0.7,-1.5606 1.56,-1.5606 z"
       id="path4601"
       inkscape:connector-curvature="0"
       style="fill:#caac7d" />
    <path
       d="m 212.356,80.6481 c -0.245,-0.3758 -0.664,-0.6025 -1.112,-0.6025 l -1.271,-2e-4 c -0.792,-0.6383 -1.789,-0.9954 -2.817,-0.9954 -2.092,0 -3.855,1.4405 -4.347,3.3817 -1.568,-0.6771 -2.949,-1.721 -4.053,-3.074 -0.274,-0.3369 -0.697,-0.5187 -1.131,-0.4846 -0.433,0.0333 -0.823,0.277 -1.043,0.6522 -0.496,0.8449 -0.758,1.8148 -0.758,2.805 0,0.7073 0.133,1.3948 0.383,2.0326 -0.261,0.2478 -0.413,0.5946 -0.413,0.9627 v 0.0517 c 0,1.7142 0.814,3.5491 2.121,4.7548 -0.413,0.0535 -0.833,0.0567 -1.267,0.0084 -0.612,-0.0681 -1.192,0.2951 -1.398,0.8768 -0.206,0.5816 0.016,1.2285 0.535,1.5615 1.661,1.0645 3.583,1.6271 5.558,1.6271 3.022,0 5.743,-1.1987 7.662,-3.3752 1.68,-1.9065 2.644,-4.4325 2.644,-6.9303 0,-0.0103 0,-0.0208 0,-0.0312 l -0.003,-0.1131 0.813,-1.8473 c 0.181,-0.4107 0.142,-0.8849 -0.103,-1.2607 z m -3.26,2.3083 c -0.079,0.1782 -0.117,0.3715 -0.112,0.5663 l 0.009,0.3923 c -0.007,3.1409 -2.33,7.5381 -7.481,7.6329 0.164,-0.1089 0.324,-0.2246 0.48,-0.3468 0.446,-0.349 0.622,-0.9431 0.438,-1.4788 -0.185,-0.5358 -0.69,-0.8955 -1.256,-0.8955 -0.952,0 -1.746,-0.7476 -2.226,-1.6458 0.019,7e-4 0.037,0.0012 0.056,0.0018 0.59,0.0159 1.122,-0.363 1.3,-0.9271 0.179,-0.5642 -0.037,-1.1783 -0.53,-1.5062 -0.651,-0.4336 -1.092,-1.1031 -1.239,-1.8559 1.51,1.2561 3.277,2.1603 5.21,2.656 0.61,0.1562 1.25,-0.1471 1.528,-0.7119 0.133,-0.2715 0.169,-0.5803 0.103,-0.8752 -0.032,-0.1455 -0.048,-0.2856 -0.048,-0.4288 0,-1.0076 0.82,-1.8275 1.827,-1.8275 0.504,0 0.989,0.2098 1.332,0.5754 0.196,0.209 0.452,0.3476 0.73,0.3984 z"
       id="path4603"
       inkscape:connector-curvature="0"
       style="fill:#caac7d" />
  </g>
  <defs
     id="defs4610">
    <clipPath
       id="clip0">
      <rect
         width="68"
         height="68"
         transform="translate(151,73)"
         id="rect4607"
         x="0"
         y="0"
         style="fill:#ffffff" />
    </clipPath>
  </defs>
</svg>
