<?xml version="1.0" encoding="UTF-8" standalone="no"?>
<svg
   xmlns:dc="http://purl.org/dc/elements/1.1/"
   xmlns:cc="http://creativecommons.org/ns#"
   xmlns:rdf="http://www.w3.org/1999/02/22-rdf-syntax-ns#"
   xmlns:svg="http://www.w3.org/2000/svg"
   xmlns="http://www.w3.org/2000/svg"
   xmlns:sodipodi="http://sodipodi.sourceforge.net/DTD/sodipodi-0.dtd"
   xmlns:inkscape="http://www.inkscape.org/namespaces/inkscape"
   width="120"
   height="120"
   viewBox="0 0 120 120"
   version="1.1"
   id="svg5219"
   sodipodi:docname="3_разработка_моб_прил.svg"
   inkscape:version="0.92.1 r15371"
   style="fill:none">
  <metadata
     id="metadata5225">
    <rdf:RDF>
      <cc:Work
         rdf:about="">
        <dc:format>image/svg+xml</dc:format>
        <dc:type
           rdf:resource="http://purl.org/dc/dcmitype/StillImage" />
      </cc:Work>
    </rdf:RDF>
  </metadata>
  <defs
     id="defs5223" />
  <sodipodi:namedview
     pagecolor="#ffffff"
     bordercolor="#666666"
     borderopacity="1"
     objecttolerance="10"
     gridtolerance="10"
     guidetolerance="10"
     inkscape:pageopacity="0"
     inkscape:pageshadow="2"
     inkscape:window-width="1172"
     inkscape:window-height="810"
     id="namedview5221"
     showgrid="false"
     inkscape:zoom="0.78666667"
     inkscape:cx="-23.358233"
     inkscape:cy="17.000001"
     inkscape:window-x="0"
     inkscape:window-y="0"
     inkscape:window-maximized="0"
     inkscape:current-layer="svg5219" />
  <circle
     cx="60"
     cy="60"
     r="60"
     id="circle5187"
     style="fill:#ffffff" />
  <path
     d="m 64.781,30.25 h -9.562 c -0.734,0 -1.328,0.5946 -1.328,1.3281 0,0.7335 0.594,1.3281 1.328,1.3281 h 9.562 c 0.734,0 1.328,-0.5946 1.328,-1.3281 0,-0.7335 -0.594,-1.3281 -1.328,-1.3281 z"
     id="path5191"
     inkscape:connector-curvature="0"
     style="fill:#caac7d" />
  <path
     d="m 81.126,65.745 c -0.247,-0.247 -0.589,-0.389 -0.938,-0.389 -0.35,0 -0.692,0.142 -0.939,0.389 -0.248,0.247 -0.39,0.59 -0.39,0.939 0,0.351 0.142,0.692 0.39,0.939 0.247,0.249 0.589,0.39 0.939,0.39 0.349,0 0.691,-0.141 0.938,-0.39 0.248,-0.247 0.39,-0.589 0.39,-0.939 0,-0.349 -0.142,-0.692 -0.39,-0.939 z"
     id="path5193"
     inkscape:connector-curvature="0"
     style="fill:#caac7d" />
  <path
     d="m 80.188,70.404 c -0.734,0 -1.329,0.594 -1.329,1.328 v 9.773 H 41.141 v -3.177 h 11.013 c 1.69,0 3.065,-1.375 3.065,-3.064 V 59.345 c 0,-1.689 -1.375,-3.064 -3.065,-3.064 h -3.026 l -3.083,-3.083 c -0.519,-0.5185 -1.359,-0.5185 -1.878,0 l -3.083,3.083 H 29.064 C 27.375,56.281 26,57.656 26,59.345 v 15.919 c 0,1.689 1.375,3.064 3.064,3.064 h 9.42 v 10.458 c 0,2.875 2.339,5.214 5.215,5.214 h 32.602 c 2.876,0 5.215,-2.339 5.215,-5.214 V 71.732 c 0,-0.734 -0.595,-1.328 -1.328,-1.328 z m -51.124,5.268 c -0.225,0 -0.408,-0.183 -0.408,-0.408 V 59.345 c 0,-0.225 0.183,-0.408 0.408,-0.408 h 12.57 c 0.352,0 0.69,-0.14 0.939,-0.389 l 2.533,-2.533 2.533,2.533 c 0.249,0.249 0.587,0.389 0.939,0.389 h 3.576 c 0.225,0 0.408,0.183 0.408,0.408 v 15.919 c 0,0.225 -0.183,0.408 -0.408,0.408 z m 49.795,13.114 c 0,1.41 -1.147,2.558 -2.558,2.558 H 43.699 c -1.411,0 -2.558,-1.148 -2.558,-2.558 v -4.625 h 37.718 z"
     id="path5195"
     inkscape:connector-curvature="0"
     style="fill:#caac7d" />
  <path
     d="M 60.939,86.654 C 60.692,86.407 60.349,86.265 60,86.265 c -0.349,0 -0.692,0.142 -0.939,0.389 -0.247,0.247 -0.389,0.59 -0.389,0.939 0,0.349 0.142,0.692 0.389,0.939 0.247,0.247 0.59,0.389 0.939,0.389 0.349,0 0.692,-0.142 0.939,-0.389 0.247,-0.247 0.389,-0.59 0.389,-0.939 0,-0.35 -0.142,-0.692 -0.389,-0.939 z"
     id="path5197"
     inkscape:connector-curvature="0"
     style="fill:#caac7d" />
  <path
     d="m 90.936,39.2812 h -9.42 V 31.2144 C 81.516,28.3391 79.177,26 76.301,26 H 43.699 c -2.876,0 -5.215,2.3391 -5.215,5.2144 v 20.8264 c 0,0.7335 0.595,1.3282 1.328,1.3282 0.734,0 1.329,-0.5947 1.329,-1.3282 V 37.1562 h 37.718 v 2.125 H 67.845 c -1.689,0 -3.064,1.3747 -3.064,3.0643 V 58.264 c 0,1.69 1.375,3.064 3.064,3.064 h 2.477 l 3.083,3.083 c 0.259,0.26 0.599,0.389 0.939,0.389 0.34,0 0.68,-0.129 0.939,-0.389 l 3.083,-3.083 h 12.57 C 92.625,61.328 94,59.954 94,58.264 V 42.3455 c 0,-1.6896 -1.375,-3.0643 -3.064,-3.0643 z M 41.141,34.5 v -3.2856 c 0,-1.4106 1.147,-2.5582 2.558,-2.5582 h 32.602 c 1.411,0 2.558,1.1476 2.558,2.5582 V 34.5 Z m 50.203,23.764 c 0,0.225 -0.183,0.408 -0.408,0.408 h -13.12 c -0.352,0 -0.69,0.14 -0.939,0.389 l -2.533,2.533 -2.533,-2.533 c -0.249,-0.249 -0.587,-0.389 -0.939,-0.389 h -3.027 c -0.224,0 -0.407,-0.183 -0.407,-0.408 V 42.3455 c 0,-0.225 0.183,-0.408 0.407,-0.408 h 23.091 c 0.225,0 0.408,0.183 0.408,0.408 z"
     id="path5199"
     inkscape:connector-curvature="0"
     style="fill:#caac7d" />
  <path
     d="m 84.693,48.585 -5.077,-3.2539 c -0.816,-0.523 -1.852,-0.5594 -2.703,-0.0941 -0.851,0.4652 -1.379,1.3565 -1.379,2.3261 v 6.5079 c 0,0.97 0.528,1.861 1.379,2.326 0.398,0.218 0.835,0.326 1.272,0.326 0.498,0 0.996,-0.141 1.431,-0.42 l 5.077,-3.254 c 0.764,-0.4895 1.22,-1.3239 1.22,-2.2316 0,-0.9081 -0.456,-1.7425 -1.22,-2.2324 z m -6.503,5.476 0.001,-6.4884 5.061,3.2446 z"
     id="path5201"
     inkscape:connector-curvature="0"
     style="fill:#caac7d" />
  <path
     d="m 47.658,66.356 c -0.247,-0.247 -0.59,-0.387 -0.939,-0.387 -0.35,0 -0.692,0.14 -0.939,0.387 -0.247,0.247 -0.389,0.59 -0.389,0.941 0,0.349 0.142,0.692 0.389,0.939 0.247,0.247 0.589,0.389 0.939,0.389 0.349,0 0.692,-0.142 0.939,-0.389 0.247,-0.248 0.389,-0.59 0.389,-0.939 0,-0.351 -0.142,-0.692 -0.389,-0.941 z"
     id="path5203"
     inkscape:connector-curvature="0"
     style="fill:#caac7d" />
  <path
     d="m 41.15,66.356 c -0.247,-0.247 -0.59,-0.387 -0.939,-0.387 -0.349,0 -0.692,0.14 -0.939,0.387 -0.247,0.249 -0.389,0.59 -0.389,0.941 0,0.349 0.142,0.692 0.389,0.939 0.247,0.247 0.59,0.389 0.939,0.389 0.349,0 0.692,-0.142 0.939,-0.389 0.247,-0.248 0.389,-0.59 0.389,-0.939 0,-0.351 -0.142,-0.692 -0.389,-0.941 z"
     id="path5205"
     inkscape:connector-curvature="0"
     style="fill:#caac7d" />
  <path
     d="m 34.642,66.356 c -0.247,-0.247 -0.59,-0.387 -0.939,-0.387 -0.349,0 -0.692,0.14 -0.939,0.387 -0.247,0.249 -0.389,0.59 -0.389,0.941 0,0.349 0.142,0.692 0.389,0.939 0.247,0.247 0.59,0.389 0.939,0.389 0.349,0 0.692,-0.142 0.939,-0.389 0.247,-0.248 0.389,-0.59 0.389,-0.939 0,-0.351 -0.142,-0.692 -0.389,-0.941 z"
     id="path5207"
     inkscape:connector-curvature="0"
     style="fill:#caac7d" />
  <path
     d="M 60.93,41.6719 H 44.721 c -0.733,0 -1.328,0.5946 -1.328,1.3281 0,0.7335 0.595,1.3281 1.328,1.3281 H 60.93 c 0.733,0 1.328,-0.5946 1.328,-1.3281 0,-0.7335 -0.595,-1.3281 -1.328,-1.3281 z"
     id="path5209"
     inkscape:connector-curvature="0"
     style="fill:#caac7d" />
  <path
     d="m 51.176,46.9844 h -6.455 c -0.733,0 -1.328,0.5946 -1.328,1.3281 0,0.7335 0.595,1.3281 1.328,1.3281 h 6.455 c 0.733,0 1.328,-0.5946 1.328,-1.3281 0,-0.7335 -0.595,-1.3281 -1.328,-1.3281 z"
     id="path5211"
     inkscape:connector-curvature="0"
     style="fill:#caac7d" />
  <path
     d="m 58.281,47.3735 c -0.247,-0.247 -0.589,-0.3891 -0.939,-0.3891 -0.349,0 -0.692,0.1421 -0.939,0.3891 -0.247,0.247 -0.389,0.5897 -0.389,0.939 0,0.3493 0.142,0.692 0.389,0.939 0.247,0.247 0.59,0.3891 0.939,0.3891 0.35,0 0.692,-0.1421 0.939,-0.3891 0.247,-0.247 0.39,-0.5897 0.39,-0.939 0,-0.3493 -0.143,-0.692 -0.39,-0.939 z"
     id="path5213"
     inkscape:connector-curvature="0"
     style="fill:#caac7d" />
  <path
     d="M 74.285,70.88 H 60.994 c -0.734,0 -1.328,0.594 -1.328,1.328 0,0.733 0.594,1.328 1.328,1.328 h 13.291 c 0.734,0 1.328,-0.595 1.328,-1.328 0,-0.734 -0.594,-1.328 -1.328,-1.328 z"
     id="path5215"
     inkscape:connector-curvature="0"
     style="fill:#caac7d" />
  <path
     d="m 67.902,76.192 h -6.908 c -0.734,0 -1.328,0.595 -1.328,1.328 0,0.734 0.594,1.328 1.328,1.328 h 6.908 c 0.734,0 1.329,-0.594 1.329,-1.328 0,-0.733 -0.595,-1.328 -1.329,-1.328 z"
     id="path5217"
     inkscape:connector-curvature="0"
     style="fill:#caac7d" />
</svg>
