<?xml version="1.0" encoding="UTF-8" standalone="no"?>
<svg
   xmlns:dc="http://purl.org/dc/elements/1.1/"
   xmlns:cc="http://creativecommons.org/ns#"
   xmlns:rdf="http://www.w3.org/1999/02/22-rdf-syntax-ns#"
   xmlns:svg="http://www.w3.org/2000/svg"
   xmlns="http://www.w3.org/2000/svg"
   xmlns:sodipodi="http://sodipodi.sourceforge.net/DTD/sodipodi-0.dtd"
   xmlns:inkscape="http://www.inkscape.org/namespaces/inkscape"
   width="120"
   height="120"
   viewBox="0 0 120 120"
   version="1.1"
   id="svg5810"
   sodipodi:docname="4_настройка_яндексдирект.svg"
   inkscape:version="0.92.1 r15371"
   style="fill:none">
  <metadata
     id="metadata5816">
    <rdf:RDF>
      <cc:Work
         rdf:about="">
        <dc:format>image/svg+xml</dc:format>
        <dc:type
           rdf:resource="http://purl.org/dc/dcmitype/StillImage" />
      </cc:Work>
    </rdf:RDF>
  </metadata>
  <defs
     id="defs5814" />
  <sodipodi:namedview
     pagecolor="#ffffff"
     bordercolor="#666666"
     borderopacity="1"
     objecttolerance="10"
     gridtolerance="10"
     guidetolerance="10"
     inkscape:pageopacity="0"
     inkscape:pageshadow="2"
     inkscape:window-width="1224"
     inkscape:window-height="812"
     id="namedview5812"
     showgrid="false"
     inkscape:zoom="0.78666667"
     inkscape:cx="-168.81356"
     inkscape:cy="17.000001"
     inkscape:window-x="0"
     inkscape:window-y="0"
     inkscape:window-maximized="0"
     inkscape:current-layer="svg5810" />
  <circle
     cx="60"
     cy="60"
     r="60"
     id="circle5796"
     style="fill:#ffffff" />
  <path
     d="m 67.02,46.5686 -2.29,-0.5706 -1.136,-2.7408 1.215,-2.0215 c 0.313,-0.5208 0.232,-1.1878 -0.198,-1.6173 l -3.527,-3.5272 c -0.43,-0.4297 -1.097,-0.5116 -1.618,-0.1984 l -2.021,1.2152 -2.741,-1.1358 -0.57,-2.29 C 53.987,33.0927 53.457,32.6788 52.85,32.6788 h -4.988 c -0.607,0 -1.137,0.4137 -1.284,1.0034 l -0.57,2.29 -2.741,1.1358 -2.021,-1.2152 c -0.521,-0.3131 -1.188,-0.2311 -1.618,0.1984 l -3.527,3.5273 c -0.43,0.4297 -0.511,1.0967 -0.198,1.6173 l 1.215,2.0215 -1.136,2.7409 -2.29,0.5705 c -0.59,0.1469 -1.003,0.6764 -1.003,1.2841 V 52.84 c 0,0.608 0.413,1.137 1.003,1.284 l 2.29,0.571 1.136,2.74 -1.215,2.022 c -0.313,0.521 -0.231,1.188 0.198,1.617 l 3.527,3.527 c 0.43,0.43 1.097,0.512 1.617,0.199 l 2.022,-1.215 2.741,1.135 0.57,2.291 c 0.147,0.589 0.677,1.003 1.284,1.003 h 4.988 c 0.607,0 1.137,-0.414 1.284,-1.003 l 0.57,-2.291 2.741,-1.135 2.021,1.215 c 0.521,0.313 1.188,0.231 1.618,-0.199 l 3.527,-3.527 c 0.43,-0.429 0.511,-1.096 0.198,-1.617 l -1.215,-2.022 1.136,-2.74 2.29,-0.571 c 0.589,-0.147 1.003,-0.677 1.003,-1.2841 v -4.9873 c 0,-0.6077 -0.413,-1.1371 -1.003,-1.284 z m -1.643,5.2373 -1.934,0.4817 c -0.407,0.1015 -0.742,0.3898 -0.902,0.7774 l -1.647,3.973 c -0.161,0.388 -0.128,0.829 0.088,1.189 l 1.026,1.707 -2.065,2.065 -1.707,-1.027 c -0.359,-0.216 -0.8,-0.248 -1.188,-0.088 l -3.973,1.647 c -0.388,0.16 -0.676,0.495 -0.778,0.903 l -0.481,1.933 h -2.92 l -0.481,-1.933 c -0.102,-0.408 -0.39,-0.742 -0.778,-0.903 l -3.973,-1.647 c -0.388,-0.16 -0.829,-0.127 -1.188,0.088 l -1.707,1.027 -2.065,-2.065 1.026,-1.707 c 0.216,-0.36 0.249,-0.801 0.088,-1.189 l -1.646,-3.973 c -0.161,-0.3874 -0.496,-0.6759 -0.903,-0.7772 l -1.934,-0.4817 v -2.9194 l 1.934,-0.4817 c 0.407,-0.1015 0.742,-0.3898 0.903,-0.7774 l 1.646,-3.9733 c 0.161,-0.3877 0.128,-0.8286 -0.088,-1.1881 l -1.026,-1.7072 2.065,-2.0651 1.707,1.0262 c 0.36,0.2161 0.8,0.2491 1.188,0.0882 l 3.973,-1.6466 c 0.388,-0.1605 0.676,-0.4955 0.778,-0.9026 l 0.482,-1.9337 h 2.919 l 0.482,1.9337 c 0.101,0.4071 0.389,0.7419 0.777,0.9026 l 3.973,1.6466 c 0.388,0.1606 0.829,0.1278 1.189,-0.0882 l 1.707,-1.0262 2.065,2.065 -1.027,1.7071 c -0.216,0.3597 -0.248,0.8005 -0.088,1.1882 l 1.647,3.9733 c 0.16,0.3876 0.495,0.676 0.902,0.7774 l 1.934,0.4817 z"
     id="path5800"
     inkscape:connector-curvature="0"
     style="fill:#caac7d" />
  <path
     d="m 50.356,41.084 c -0.731,0 -1.323,0.5923 -1.323,1.3232 0,0.7309 0.592,1.3232 1.323,1.3232 3.648,0 6.616,2.9678 6.616,6.6158 0,3.6478 -2.968,6.6158 -6.616,6.6158 -3.648,0 -6.616,-2.968 -6.616,-6.6158 0,-0.6754 0.101,-1.3409 0.301,-1.9783 0.218,-0.6974 -0.17,-1.4395 -0.868,-1.6579 -0.697,-0.2183 -1.44,0.1703 -1.658,0.8678 -0.279,0.8933 -0.421,1.8249 -0.421,2.7684 0,5.1068 4.155,9.2618 9.262,9.2618 5.107,0 9.262,-4.155 9.262,-9.2618 0,-5.1072 -4.155,-9.2622 -9.262,-9.2622 z"
     id="path5802"
     inkscape:connector-curvature="0"
     style="fill:#caac7d" />
  <path
     d="m 46.893,43.0837 c -0.417,-0.5999 -1.242,-0.7482 -1.842,-0.3307 -0.01,0.0073 -0.025,0.0178 -0.035,0.0252 -0.588,0.4344 -0.712,1.2628 -0.278,1.8506 0.26,0.3512 0.66,0.5368 1.065,0.5368 0.267,0 0.536,-0.0802 0.768,-0.2465 0.593,-0.4193 0.737,-1.2386 0.322,-1.8354 z"
     id="path5804"
     inkscape:connector-curvature="0"
     style="fill:#caac7d" />
  <path
     d="m 73.379,49.0228 c -0.731,0 -1.323,0.5925 -1.323,1.3234 v 0.094 c -0.003,0.7307 0.587,1.3256 1.318,1.3283 0.002,0 0.003,0 0.005,0 0.728,0 1.32,-0.5891 1.323,-1.3181 v -0.1045 c 0,-0.7306 -0.592,-1.3231 -1.323,-1.3231 z"
     id="path5806"
     inkscape:connector-curvature="0"
     style="fill:#caac7d" />
  <path
     d="M 92.42,84.742 76.722,69.045 c -0.477,-0.478 -1.228,-0.513 -1.747,-0.108 l -4.649,-4.649 c 1.614,-2.311 2.845,-4.93 3.589,-7.777 0.184,-0.707 -0.24,-1.43 -0.946,-1.614 -0.708,-0.185 -1.43,0.239 -1.615,0.946 -2.49,9.54 -11.125,16.203 -20.998,16.203 -11.965,0 -21.7,-9.734 -21.7,-21.6999 0,-11.9655 9.735,-21.6998 21.7,-21.6998 9.797,0 18.414,6.5984 20.956,16.0458 0.19,0.7058 0.916,1.1236 1.622,0.934 0.705,-0.19 1.124,-0.9159 0.934,-1.6215 C 71.015,33.4038 61.347,26 50.356,26 36.932,26 26.01,36.9217 26.01,50.3462 c 0,13.4248 10.922,24.3458 24.346,24.3458 5.162,0 10.022,-1.624 14.023,-4.441 l 4.634,4.633 c -0.496,0.519 -0.49,1.34 0.02,1.85 l 6.307,6.308 h -3.813 c -0.731,0 -1.324,0.593 -1.324,1.323 v 6.746 H 67.028 V 77.614 c 0,-0.73 -0.593,-1.323 -1.323,-1.323 h -8.469 c -0.73,0 -1.323,0.592 -1.323,1.323 v 13.497 h -3.175 v -7.939 c 0,-0.731 -0.593,-1.324 -1.324,-1.324 h -8.468 c -0.731,0 -1.323,0.593 -1.323,1.324 v 7.939 H 38.447 V 74.883 c 0,-0.73 -0.592,-1.323 -1.323,-1.323 h -8.468 c -0.731,0 -1.323,0.593 -1.323,1.323 v 16.228 c -0.731,0 -1.323,0.592 -1.323,1.323 0,0.731 0.592,1.323 1.323,1.323 h 55.573 c 0.731,0 1.323,-0.592 1.323,-1.323 0,-0.263 -0.077,-0.507 -0.209,-0.712 l 0.71,0.71 c 1.012,1.012 2.362,1.568 3.805,1.568 0.009,0 0.018,0 0.027,0 1.448,-0.007 2.808,-0.574 3.83,-1.596 2.12,-2.12 2.132,-5.557 0.028,-7.662 z M 35.801,91.111 H 29.979 V 76.207 h 5.822 z m 14.29,0 h -5.822 v -6.616 h 5.822 z m 14.291,0 H 58.56 V 78.938 h 5.822 z M 66.471,68.6 c 0.782,-0.689 1.52,-1.429 2.209,-2.215 l 4.416,4.415 -2.213,2.212 z m 7.563,9.393 -2.195,-2.194 3.948,-3.947 2.194,2.194 z m 4.638,13.118 H 72.85 v -5.422 h 5.028 c 0.035,0 0.069,-0.003 0.104,-0.006 l 0.69,0.691 z m 4.234,0 H 81.318 V 89.02 l 2.3,2.3 c -0.206,-0.132 -0.45,-0.209 -0.712,-0.209 z m 7.615,-0.578 c -0.526,0.526 -1.226,0.817 -1.972,0.821 -0.005,0 -0.009,0 -0.014,0 -0.736,0 -1.422,-0.282 -1.933,-0.793 L 75.905,79.864 79.852,75.917 90.549,86.613 c 1.072,1.073 1.06,2.832 -0.028,3.92 z"
     id="path5808"
     inkscape:connector-curvature="0"
     style="fill:#caac7d" />
</svg>
