<?xml version="1.0" encoding="UTF-8" standalone="no"?>
<svg
   xmlns:dc="http://purl.org/dc/elements/1.1/"
   xmlns:cc="http://creativecommons.org/ns#"
   xmlns:rdf="http://www.w3.org/1999/02/22-rdf-syntax-ns#"
   xmlns:svg="http://www.w3.org/2000/svg"
   xmlns="http://www.w3.org/2000/svg"
   xmlns:sodipodi="http://sodipodi.sourceforge.net/DTD/sodipodi-0.dtd"
   xmlns:inkscape="http://www.inkscape.org/namespaces/inkscape"
   width="120"
   height="120"
   viewBox="0 0 120 120"
   version="1.1"
   id="svg7001"
   sodipodi:docname="6_настройка_рекламы.svg"
   inkscape:version="0.92.1 r15371"
   style="fill:none">
  <metadata
     id="metadata7005">
    <rdf:RDF>
      <cc:Work
         rdf:about="">
        <dc:format>image/svg+xml</dc:format>
        <dc:type
           rdf:resource="http://purl.org/dc/dcmitype/StillImage" />
      </cc:Work>
    </rdf:RDF>
  </metadata>
  <sodipodi:namedview
     pagecolor="#ffffff"
     bordercolor="#666666"
     borderopacity="1"
     objecttolerance="10"
     gridtolerance="10"
     guidetolerance="10"
     inkscape:pageopacity="0"
     inkscape:pageshadow="2"
     inkscape:window-width="1440"
     inkscape:window-height="853"
     id="namedview7003"
     showgrid="false"
     inkscape:zoom="0.78666667"
     inkscape:cx="-168.81356"
     inkscape:cy="17.000001"
     inkscape:window-x="0"
     inkscape:window-y="0"
     inkscape:window-maximized="0"
     inkscape:current-layer="svg7001" />
  <circle
     cx="60"
     cy="60"
     r="60"
     id="circle6978"
     style="fill:#ffffff" />
  <g
     clip-path="url(#clip0)"
     id="g6994"
     transform="translate(-125,-47)">
    <path
       d="m 191.373,73.0037 c -14.199,0 -25.929,10.7682 -27.457,24.567 l -1.995,-1.9956 c -0.249,-0.249 -0.587,-0.389 -0.939,-0.389 h -8.654 c -0.537,0 -1.021,0.3237 -1.227,0.8198 -0.205,0.496 -0.092,1.0674 0.288,1.4471 l 3.178,3.178 -3.178,3.177 c -0.38,0.38 -0.493,0.951 -0.288,1.448 0.206,0.496 0.69,0.819 1.227,0.819 h 8.654 c 0.352,0 0.69,-0.14 0.939,-0.389 l 1.995,-1.995 c 0.437,3.933 1.71,7.732 3.749,11.131 0.377,0.629 1.193,0.833 1.822,0.456 0.629,-0.377 0.833,-1.193 0.456,-1.822 -2.09,-3.483 -3.287,-7.433 -3.502,-11.497 h 4.787 c 0.232,3.568 1.395,6.988 3.404,9.961 0.41,0.608 1.236,0.768 1.843,0.357 0.608,-0.41 0.768,-1.236 0.357,-1.843 -1.71,-2.532 -2.716,-5.439 -2.944,-8.475 h 4.8 c 0.52,5.003 3.945,9.156 8.553,10.738 l -23.263,5.99 h -5.4 c -1.761,0 -3.227,1.282 -3.518,2.961 -2.328,0.573 -4.06,2.677 -4.06,5.179 0,2.508 1.74,4.616 4.075,5.183 0.262,1.325 1.259,2.388 2.547,2.747 l 2.124,5.398 c 0.2,0.507 0.69,0.841 1.236,0.841 h 5.569 c 0.439,0 0.85,-0.217 1.097,-0.58 0.248,-0.363 0.299,-0.825 0.139,-1.234 l -1.449,-3.68 20.979,5.452 c 0.111,0.028 0.223,0.042 0.335,0.042 0.29,0 0.577,-0.095 0.812,-0.277 0.325,-0.252 0.515,-0.639 0.515,-1.051 v -25.705 c 0,-0.324 -0.119,-0.632 -0.328,-0.871 0.878,0.191 1.788,0.293 2.722,0.293 7.033,0 12.755,-5.721 12.755,-12.754 0,-7.0328 -5.722,-12.7542 -12.755,-12.7542 -6.584,0 -12.019,5.0154 -12.685,11.4263 h -4.8 c 0.681,-9.0508 8.263,-16.2068 17.485,-16.2068 9.669,0 17.535,7.866 17.535,17.5347 0,4.684 -1.824,9.087 -5.136,12.399 -0.518,0.518 -0.518,1.359 0,1.878 0.26,0.259 0.599,0.389 0.939,0.389 0.34,0 0.68,-0.13 0.939,-0.389 3.814,-3.813 5.914,-8.884 5.914,-14.277 0,-11.133 -9.058,-20.1905 -20.191,-20.1905 -10.687,0 -19.459,8.3464 -20.146,18.8627 h -4.79 c 0.693,-13.1543 11.612,-23.6433 24.936,-23.6433 13.769,-10e-5 24.971,11.202 24.971,24.9711 0,5.594 -1.807,10.881 -5.227,15.29 -0.449,0.579 -0.344,1.413 0.236,1.863 0.242,0.188 0.528,0.279 0.813,0.279 0.396,0 0.788,-0.177 1.05,-0.514 C 217,112.67 219,106.82 219,100.631 219,85.397 206.607,73.0037 191.373,73.0037 Z m -30.941,30.4153 h -4.898 l 1.85,-1.849 c 0.518,-0.519 0.518,-1.36 0,-1.8783 l -1.85,-1.8497 h 4.898 l 2.789,2.789 z m -5.425,25.732 c -0.806,-0.463 -1.351,-1.33 -1.351,-2.323 0,-0.994 0.545,-1.861 1.351,-2.323 z m 3.571,3.081 c -0.505,0 -0.915,-0.411 -0.915,-0.915 v -9.058 h -0.001 c 0,-0.505 0.411,-0.916 0.916,-0.916 h 4.241 v 10.889 z m 3.308,6.109 -1.358,-3.453 h 2.714 l 1.359,3.453 z m 24.437,-0.39 -20.848,-5.418 v -11.489 l 15.007,-3.864 v 10.316 c 0,0.733 0.595,1.328 1.328,1.328 0.734,0 1.328,-0.595 1.328,-1.328 v -11 l 3.186,-0.82 v 22.275 z m 5.05,-38.6482 h -2.303 c 0.46,-0.7959 1.319,-1.334 2.303,-1.334 1.468,0 2.662,1.1942 2.662,2.6622 0,1.467 -1.194,2.662 -2.662,2.662 -0.984,0 -1.843,-0.538 -2.303,-1.334 h 2.303 c 0.733,0 1.328,-0.595 1.328,-1.328 0,-0.7337 -0.594,-1.3282 -1.328,-1.3282 z m 0,6.6462 c 2.932,0 5.318,-2.386 5.318,-5.318 0,-2.9324 -2.386,-5.3179 -5.318,-5.3179 -2.474,0 -4.558,1.698 -5.15,3.9898 h -4.858 c 0.652,-4.9426 4.89,-8.7703 10.008,-8.7703 5.569,0 10.099,4.5301 10.099,10.0984 0,5.568 -4.53,10.098 -10.099,10.098 -5.118,0 -9.356,-3.828 -10.008,-8.77 h 4.858 c 0.592,2.292 2.676,3.99 5.15,3.99 z"
       id="path6982"
       inkscape:connector-curvature="0"
       style="fill:#caac7d" />
    <path
       d="m 210.241,118.999 c -0.498,-0.536 -1.338,-0.566 -1.875,-0.07 -0.006,0.005 -0.018,0.017 -0.024,0.022 -0.53,0.508 -0.548,1.348 -0.04,1.878 0.261,0.272 0.609,0.409 0.959,0.409 0.326,0 0.653,-0.119 0.909,-0.36 0.003,-0.003 0.006,-0.006 0.008,-0.008 0.534,-0.5 0.561,-1.336 0.063,-1.871 z"
       id="path6984"
       inkscape:connector-curvature="0"
       style="fill:#caac7d" />
    <path
       d="m 201.916,116.249 c -0.519,-0.518 -1.36,-0.518 -1.878,0 -0.519,0.519 -0.519,1.36 0,1.878 4.791,4.791 4.791,12.586 0,17.377 -0.519,0.519 -0.519,1.36 0,1.878 0.259,0.26 0.599,0.389 0.939,0.389 0.34,0 0.679,-0.129 0.939,-0.389 5.826,-5.826 5.826,-15.306 0,-21.133 z"
       id="path6986"
       inkscape:connector-curvature="0"
       style="fill:#caac7d" />
    <path
       d="m 198.532,119.633 c -0.519,-0.518 -1.359,-0.518 -1.878,0 -0.519,0.519 -0.519,1.36 0,1.878 2.925,2.925 2.925,7.685 0,10.609 -0.519,0.519 -0.519,1.36 0,1.878 0.259,0.26 0.599,0.389 0.939,0.389 0.34,0 0.679,-0.129 0.939,-0.389 3.96,-3.96 3.96,-10.404 0,-14.365 z"
       id="path6988"
       inkscape:connector-curvature="0"
       style="fill:#caac7d" />
    <path
       d="m 194.964,123.201 c -0.518,-0.519 -1.359,-0.519 -1.878,0 -0.518,0.518 -0.518,1.359 0,1.878 0.958,0.958 0.958,2.516 0,3.474 -0.518,0.518 -0.518,1.359 0,1.878 0.26,0.259 0.599,0.389 0.939,0.389 0.34,0 0.68,-0.13 0.939,-0.389 1.994,-1.994 1.994,-5.237 0,-7.23 z"
       id="path6990"
       inkscape:connector-curvature="0"
       style="fill:#caac7d" />
    <path
       d="m 182.748,131.559 c -0.247,-0.247 -0.589,-0.389 -0.938,-0.389 -0.35,0 -0.692,0.142 -0.939,0.389 -0.247,0.247 -0.389,0.589 -0.389,0.939 0,0.349 0.142,0.692 0.389,0.939 0.247,0.247 0.589,0.389 0.939,0.389 0.349,0 0.691,-0.142 0.938,-0.389 0.249,-0.247 0.39,-0.59 0.39,-0.939 0,-0.35 -0.141,-0.692 -0.39,-0.939 z"
       id="path6992"
       inkscape:connector-curvature="0"
       style="fill:#caac7d" />
  </g>
  <defs
     id="defs6999">
    <clipPath
       id="clip0">
      <rect
         width="68"
         height="68"
         transform="translate(151,73)"
         id="rect6996"
         x="0"
         y="0"
         style="fill:#ffffff" />
    </clipPath>
  </defs>
</svg>
