<?xml version="1.0" encoding="UTF-8" standalone="no"?>
<svg
   xmlns:dc="http://purl.org/dc/elements/1.1/"
   xmlns:cc="http://creativecommons.org/ns#"
   xmlns:rdf="http://www.w3.org/1999/02/22-rdf-syntax-ns#"
   xmlns:svg="http://www.w3.org/2000/svg"
   xmlns="http://www.w3.org/2000/svg"
   xmlns:sodipodi="http://sodipodi.sourceforge.net/DTD/sodipodi-0.dtd"
   xmlns:inkscape="http://www.inkscape.org/namespaces/inkscape"
   width="120"
   height="120"
   viewBox="0 0 120 120"
   version="1.1"
   id="svg7601"
   sodipodi:docname="7_разраб_автоматиз_бизн.svg"
   inkscape:version="0.92.1 r15371"
   style="fill:none">
  <metadata
     id="metadata7605">
    <rdf:RDF>
      <cc:Work
         rdf:about="">
        <dc:format>image/svg+xml</dc:format>
        <dc:type
           rdf:resource="http://purl.org/dc/dcmitype/StillImage" />
      </cc:Work>
    </rdf:RDF>
  </metadata>
  <sodipodi:namedview
     pagecolor="#ffffff"
     bordercolor="#666666"
     borderopacity="1"
     objecttolerance="10"
     gridtolerance="10"
     guidetolerance="10"
     inkscape:pageopacity="0"
     inkscape:pageshadow="2"
     inkscape:window-width="1326"
     inkscape:window-height="833"
     id="namedview7603"
     showgrid="false"
     inkscape:zoom="0.78666667"
     inkscape:cx="-168.81356"
     inkscape:cy="17.000001"
     inkscape:window-x="0"
     inkscape:window-y="0"
     inkscape:window-maximized="0"
     inkscape:current-layer="svg7601" />
  <circle
     cx="60"
     cy="60"
     r="60"
     id="circle7576"
     style="fill:#ffffff" />
  <g
     clip-path="url(#clip0)"
     id="g7594"
     transform="translate(-125,-47)">
    <path
       d="m 188.994,124.389 c -0.247,-0.247 -0.59,-0.389 -0.939,-0.389 -0.35,0 -0.692,0.142 -0.939,0.389 -0.247,0.247 -0.39,0.59 -0.39,0.939 0,0.35 0.143,0.692 0.39,0.939 0.247,0.247 0.589,0.389 0.939,0.389 0.349,0 0.692,-0.142 0.939,-0.389 0.247,-0.247 0.389,-0.589 0.389,-0.939 0,-0.349 -0.142,-0.692 -0.389,-0.939 z"
       id="path7580"
       inkscape:connector-curvature="0"
       style="fill:#caac7d" />
    <path
       d="m 194.961,87.52 h -0.018 c -0.733,0 -1.328,0.5946 -1.328,1.3282 0,0.7335 0.595,1.3281 1.328,1.3281 h 0.018 c 0.733,0 1.328,-0.5946 1.328,-1.3281 0,-0.7336 -0.595,-1.3282 -1.328,-1.3282 z"
       id="path7582"
       inkscape:connector-curvature="0"
       style="fill:#caac7d" />
    <path
       d="m 210.782,87.5199 h -10.608 c -0.733,0 -1.328,0.5946 -1.328,1.3281 0,0.7336 0.595,1.3282 1.328,1.3282 h 10.608 c 0.734,0 1.329,-0.5946 1.329,-1.3282 0,-0.7335 -0.595,-1.3281 -1.329,-1.3281 z"
       id="path7584"
       inkscape:connector-curvature="0"
       style="fill:#caac7d" />
    <path
       d="m 217.672,81.5 h -16.065 v -5.4205 c 0,-1.698 -1.382,-3.0795 -3.08,-3.0795 h -18.82 c -1.698,0 -3.08,1.3815 -3.08,3.0795 V 81.5 h -16.065 c -0.733,0 -1.328,0.5946 -1.328,1.3281 v 12.5105 c 0,1.8531 0.764,3.5305 1.992,4.7364 v 5.994 c 0,0.734 0.595,1.328 1.329,1.328 0.733,0 1.328,-0.594 1.328,-1.328 v -4.396 c 0.629,0.199 1.298,0.306 1.992,0.306 h 5.047 v 0.004 c 0,3.002 2.443,5.445 5.445,5.445 3.003,0 5.445,-2.443 5.445,-5.445 v -0.017 h 14.61 v 0.017 c 0,3.002 2.443,5.445 5.445,5.445 3.003,0 5.445,-2.443 5.445,-5.445 v -0.016 l 5.043,0.009 c 0.002,0 0.003,0 0.004,0 0.686,0 1.356,-0.104 1.993,-0.304 v 21 c 0,0.732 -0.596,1.328 -1.329,1.328 h -19.302 c -0.733,0 -1.328,0.595 -1.328,1.328 0,0.734 0.595,1.328 1.328,1.328 h 19.302 c 2.197,0 3.985,-1.787 3.985,-3.984 v -22.596 c 0.015,-0.015 0.031,-0.029 0.045,-0.044 C 218.309,98.7779 219,97.1098 219,95.3351 V 82.8281 C 219,82.0946 218.405,81.5 217.672,81.5 Z m -38.388,-5.4205 c 0,-0.2333 0.189,-0.4232 0.423,-0.4232 h 18.82 c 0.234,0 0.424,0.1899 0.424,0.4232 V 81.5 h -19.667 z m -0.128,25.9035 c 0,1.538 -1.251,2.789 -2.789,2.789 -1.538,0 -2.789,-1.251 -2.789,-2.789 v -4.3895 h 5.578 z m 25.5,0 c 0,1.538 -1.251,2.789 -2.789,2.789 -1.538,0 -2.789,-1.251 -2.789,-2.789 v -4.3895 h 5.578 z m 11.688,-6.6479 c 0,1.0648 -0.415,2.0657 -1.168,2.8183 -0.753,0.752 -1.753,1.1661 -2.815,1.1661 -10e-4,0 -0.002,0 -0.003,0 l -5.046,-0.0092 v -2.6465 c 0,-0.952 -0.774,-1.7266 -1.726,-1.7266 h -7.438 c -0.952,0 -1.726,0.7746 -1.726,1.7266 v 2.6464 h -14.61 v -2.6464 c 0,-0.952 -0.774,-1.7266 -1.726,-1.7266 h -7.438 c -0.952,0 -1.726,0.7746 -1.726,1.7266 v 2.6592 h -5.047 c -2.197,0 -3.985,-1.7874 -3.985,-3.9844 V 84.1563 h 54.454 z"
       id="path7586"
       inkscape:connector-curvature="0"
       style="fill:#caac7d" />
    <path
       d="m 189.117,111.204 c -0.868,0 -1.573,-0.585 -1.573,-1.305 0,-0.72 0.705,-1.305 1.573,-1.305 0.868,0 1.574,0.585 1.574,1.305 0,0.734 0.594,1.328 1.328,1.328 0.733,0 1.328,-0.594 1.328,-1.328 0,-1.75 -1.218,-3.237 -2.902,-3.76 v -0.07 c 0,-0.733 -0.594,-1.328 -1.328,-1.328 -0.733,0 -1.328,0.595 -1.328,1.328 v 0.07 c -1.684,0.523 -2.902,2.01 -2.902,3.76 0,2.184 1.898,3.962 4.23,3.962 0.868,0 1.574,0.585 1.574,1.305 0,0.72 -0.706,1.305 -1.574,1.305 -0.868,0 -1.573,-0.585 -1.573,-1.305 0,-0.734 -0.595,-1.328 -1.329,-1.328 -0.733,0 -1.328,0.594 -1.328,1.328 0,1.75 1.219,3.238 2.904,3.761 0.017,0.718 0.603,1.296 1.326,1.296 0.723,0 1.31,-0.578 1.327,-1.296 1.684,-0.523 2.903,-2.011 2.903,-3.761 0,-2.185 -1.898,-3.962 -4.23,-3.962 z"
       id="path7588"
       inkscape:connector-curvature="0"
       style="fill:#caac7d" />
    <path
       d="m 167.203,117.094 c -4.247,0 -7.703,3.456 -7.703,7.703 0,4.248 3.456,7.703 7.703,7.703 4.247,0 7.703,-3.455 7.703,-7.703 0,-4.247 -3.456,-7.703 -7.703,-7.703 z m 0,12.75 c -2.783,0 -5.047,-2.264 -5.047,-5.047 0,-2.783 2.264,-5.047 5.047,-5.047 2.783,0 5.047,2.264 5.047,5.047 0,2.783 -2.264,5.047 -5.047,5.047 z"
       id="path7590"
       inkscape:connector-curvature="0"
       style="fill:#caac7d" />
    <path
       d="m 183.404,122.14 c 0,-0.653 -0.475,-1.209 -1.12,-1.311 l -1.832,-0.291 -0.874,-2.107 1.089,-1.502 c 0.383,-0.528 0.325,-1.257 -0.136,-1.719 l -3.751,-3.748 c -0.462,-0.461 -1.191,-0.519 -1.719,-0.135 l -1.5,1.09 -2.109,-0.873 -0.292,-1.831 c -0.103,-0.644 -0.659,-1.119 -1.311,-1.119 0,0 -10e-4,0 -10e-4,0 l -5.302,0.002 c -0.653,10e-4 -1.209,0.476 -1.311,1.121 l -0.29,1.832 -2.108,0.873 -1.502,-1.089 c -0.528,-0.383 -1.257,-0.325 -1.719,0.137 l -3.748,3.75 c -0.461,0.462 -0.519,1.191 -0.135,1.719 l 1.09,1.5 -0.873,2.11 -1.831,0.291 c -0.645,0.103 -1.119,0.659 -1.119,1.312 l 0.002,5.302 c 10e-4,0.653 0.476,1.209 1.121,1.311 l 1.832,0.291 0.873,2.107 -1.089,1.502 c -0.383,0.528 -0.325,1.257 0.137,1.719 l 3.75,3.748 c 0.462,0.461 1.191,0.519 1.719,0.135 l 1.5,-1.09 2.11,0.873 0.291,1.831 c 0.103,0.645 0.659,1.119 1.312,1.119 0,0 0,0 0,0 l 5.302,-0.002 c 0.653,0 1.209,-0.476 1.311,-1.12 l 0.291,-1.833 2.107,-0.873 1.502,1.089 c 0.528,0.383 1.257,0.325 1.719,-0.137 l 3.748,-3.75 c 0.461,-0.462 0.518,-1.191 0.135,-1.719 l -1.09,-1.5 0.873,-2.11 1.831,-0.291 c 0.645,-0.103 1.119,-0.659 1.119,-1.312 z m -4.1,4.399 c -0.456,0.073 -0.842,0.377 -1.018,0.804 l -1.442,3.483 c -0.176,0.427 -0.118,0.915 0.153,1.288 l 0.86,1.185 -2.144,2.146 -1.186,-0.86 c -0.374,-0.271 -0.862,-0.329 -1.289,-0.152 l -3.481,1.444 c -0.426,0.177 -0.73,0.562 -0.803,1.019 l -0.229,1.446 -3.034,10e-4 -0.23,-1.445 c -0.073,-0.456 -0.377,-0.842 -0.804,-1.018 l -3.483,-1.442 c -0.164,-0.067 -0.336,-0.101 -0.508,-0.101 -0.276,0 -0.55,0.087 -0.78,0.254 l -1.185,0.86 -2.146,-2.145 0.86,-1.185 c 0.271,-0.374 0.329,-0.862 0.152,-1.288 l -1.444,-3.481 c -0.177,-0.427 -0.562,-0.731 -1.019,-0.804 l -1.446,-0.229 -10e-4,-3.034 1.445,-0.23 c 0.456,-0.073 0.842,-0.377 1.018,-0.804 l 1.442,-3.483 c 0.176,-0.427 0.119,-0.915 -0.153,-1.289 l -0.86,-1.184 2.145,-2.146 1.185,0.86 c 0.374,0.271 0.862,0.329 1.288,0.152 l 3.482,-1.444 c 0.426,-0.177 0.73,-0.562 0.803,-1.019 l 0.229,-1.446 3.034,-10e-4 0.23,1.445 c 0.073,0.456 0.377,0.842 0.804,1.018 l 3.483,1.442 c 0.427,0.176 0.915,0.118 1.289,-0.153 l 1.184,-0.86 2.146,2.144 -0.86,1.186 c -0.271,0.374 -0.329,0.862 -0.152,1.289 l 1.444,3.481 c 0.177,0.426 0.563,0.73 1.019,0.803 l 1.446,0.229 0.002,3.034 z"
       id="path7592"
       inkscape:connector-curvature="0"
       style="fill:#caac7d" />
  </g>
  <defs
     id="defs7599">
    <clipPath
       id="clip0">
      <rect
         width="68"
         height="68"
         transform="translate(151,73)"
         id="rect7596"
         x="0"
         y="0"
         style="fill:#ffffff" />
    </clipPath>
  </defs>
</svg>
