<?xml version="1.0" encoding="UTF-8" standalone="no"?>
<svg
   xmlns:dc="http://purl.org/dc/elements/1.1/"
   xmlns:cc="http://creativecommons.org/ns#"
   xmlns:rdf="http://www.w3.org/1999/02/22-rdf-syntax-ns#"
   xmlns:svg="http://www.w3.org/2000/svg"
   xmlns="http://www.w3.org/2000/svg"
   xmlns:sodipodi="http://sodipodi.sourceforge.net/DTD/sodipodi-0.dtd"
   xmlns:inkscape="http://www.inkscape.org/namespaces/inkscape"
   width="120"
   height="120"
   viewBox="0 0 120 120"
   version="1.1"
   id="svg8192"
   sodipodi:docname="8_разработка_брендбука.svg"
   inkscape:version="0.92.1 r15371"
   style="fill:none">
  <metadata
     id="metadata8198">
    <rdf:RDF>
      <cc:Work
         rdf:about="">
        <dc:format>image/svg+xml</dc:format>
        <dc:type
           rdf:resource="http://purl.org/dc/dcmitype/StillImage" />
      </cc:Work>
    </rdf:RDF>
  </metadata>
  <defs
     id="defs8196" />
  <sodipodi:namedview
     pagecolor="#ffffff"
     bordercolor="#666666"
     borderopacity="1"
     objecttolerance="10"
     gridtolerance="10"
     guidetolerance="10"
     inkscape:pageopacity="0"
     inkscape:pageshadow="2"
     inkscape:window-width="1323"
     inkscape:window-height="808"
     id="namedview8194"
     showgrid="false"
     inkscape:zoom="0.78666667"
     inkscape:cx="-168.81356"
     inkscape:cy="17.000001"
     inkscape:window-x="0"
     inkscape:window-y="0"
     inkscape:window-maximized="0"
     inkscape:current-layer="svg8192" />
  <circle
     cx="60"
     cy="60"
     r="60"
     id="circle8176"
     style="fill:#ffffff" />
  <path
     d="m 83.375,39.2812 c -0.733,0 -1.328,0.5951 -1.328,1.3282 0,0.7331 0.595,1.3281 1.328,1.3281 0.733,0 1.328,-0.595 1.328,-1.3281 0,-0.7331 -0.595,-1.3282 -1.328,-1.3282 z"
     id="path8180"
     inkscape:connector-curvature="0"
     style="fill:#caac7d" />
  <path
     d="m 36.625,39.2812 c -0.733,0 -1.328,0.5951 -1.328,1.3282 0,0.7331 0.595,1.3281 1.328,1.3281 0.733,0 1.328,-0.595 1.328,-1.3281 0,-0.7331 -0.595,-1.3282 -1.328,-1.3282 z"
     id="path8182"
     inkscape:connector-curvature="0"
     style="fill:#caac7d" />
  <path
     d="m 92.672,55.219 h -1.589 c -0.496,-3.8258 -1.696,-7.4714 -3.578,-10.8517 -0.357,-0.6407 -1.166,-0.8711 -1.807,-0.5143 -0.64,0.3569 -0.871,1.1657 -0.514,1.8066 1.661,2.9833 2.742,6.1927 3.221,9.5594 h -1.046 c -0.733,0 -1.328,0.594 -1.328,1.328 v 5.312 c 0,0.734 0.595,1.328 1.328,1.328 h 5.313 c 0.733,0 1.328,-0.594 1.328,-1.328 v -5.312 c 0,-0.734 -0.595,-1.328 -1.328,-1.328 z m -1.328,5.312 h -2.657 v -2.656 h 1.206 c 0.001,0 0.001,0 0.001,0 10e-4,0 10e-4,0 0.002,0 h 1.448 z"
     id="path8184"
     inkscape:connector-curvature="0"
     style="fill:#caac7d" />
  <path
     d="M 74.607,64.864 C 74.606,64.843 74.606,64.823 74.604,64.802 74.601,64.774 74.598,64.746 74.593,64.718 74.591,64.701 74.589,64.684 74.586,64.667 74.579,64.635 74.572,64.603 74.563,64.571 74.56,64.559 74.557,64.547 74.554,64.535 74.542,64.495 74.528,64.457 74.513,64.418 74.511,64.414 74.51,64.41 74.508,64.406 74.49,64.361 74.469,64.318 74.446,64.277 L 61.165,39.9724 C 60.933,39.5463 60.486,39.2812 60,39.2812 c -0.486,0 -0.933,0.2651 -1.165,0.6913 L 45.554,64.277 c -0.023,0.041 -0.044,0.085 -0.062,0.129 -0.002,0.004 -0.003,0.008 -0.005,0.013 -0.015,0.038 -0.029,0.077 -0.041,0.116 -0.003,0.012 -0.006,0.024 -0.009,0.036 -0.009,0.032 -0.016,0.064 -0.023,0.097 -0.003,0.016 -0.005,0.033 -0.007,0.051 -0.005,0.027 -0.008,0.055 -0.011,0.083 -0.002,0.021 -0.002,0.041 -0.003,0.062 -10e-4,0.017 -0.002,0.033 -0.002,0.05 0,0.009 0.001,0.017 0.001,0.026 0,0.021 0.002,0.042 0.003,0.062 0.002,0.027 0.004,0.053 0.007,0.079 0.003,0.018 0.006,0.037 0.009,0.055 0.004,0.029 0.01,0.057 0.017,0.085 0.004,0.016 0.008,0.032 0.012,0.047 0.008,0.031 0.018,0.06 0.028,0.09 0.003,0.008 0.005,0.017 0.008,0.025 l 4.79,12.693 c -0.384,0.19 -0.74,0.443 -1.052,0.755 -0.753,0.753 -1.167,1.754 -1.167,2.817 0,1.732 1.11,3.208 2.656,3.756 v 7.268 c 0,0.733 0.595,1.328 1.328,1.328 h 15.938 c 0.733,0 1.328,-0.595 1.328,-1.328 v -7.265 c 0.554,-0.196 1.061,-0.514 1.489,-0.941 0.753,-0.753 1.167,-1.754 1.167,-2.818 0,-1.563 -0.906,-2.919 -2.22,-3.57 l 4.791,-12.695 c 0.003,-0.008 0.005,-0.017 0.008,-0.025 0.01,-0.03 0.02,-0.059 0.028,-0.09 0.004,-0.015 0.008,-0.031 0.012,-0.047 0.007,-0.028 0.013,-0.056 0.017,-0.085 0.004,-0.018 0.007,-0.037 0.009,-0.055 0.003,-0.026 0.005,-0.052 0.007,-0.079 10e-4,-0.02 0.003,-0.041 0.003,-0.062 0,-0.009 0.002,-0.017 0.002,-0.026 -0.001,-0.017 -0.002,-0.033 -0.003,-0.05 z M 60,63.586 c 0.732,0 1.328,0.596 1.328,1.328 0,0.732 -0.596,1.328 -1.328,1.328 -0.732,0 -1.328,-0.596 -1.328,-1.328 0,-0.732 0.596,-1.328 1.328,-1.328 z m 6.641,27.758 H 53.359 v -5.711 h 13.282 z m 2.267,-8.757 c -0.251,0.251 -0.585,0.39 -0.939,0.39 H 52.031 c -0.732,0 -1.328,-0.596 -1.328,-1.329 0,-0.354 0.138,-0.687 0.389,-0.938 0.252,-0.251 0.585,-0.39 0.939,-0.39 H 67.96 c 0.003,0 0.006,0.001 0.009,0.001 0.001,0 0.003,0 0.004,0 0.73,0.002 1.324,0.597 1.324,1.327 0,0.355 -0.138,0.688 -0.389,0.939 z M 67.05,77.664 H 52.95 L 48.639,66.242 h 3.392 c 0.734,0 1.328,-0.594 1.328,-1.328 0,-0.733 -0.594,-1.328 -1.328,-1.328 H 48.958 L 58.672,45.8095 V 61.158 c -1.546,0.548 -2.656,2.025 -2.656,3.756 0,2.197 1.787,3.984 3.984,3.984 2.197,0 3.984,-1.787 3.984,-3.984 0,-1.731 -1.11,-3.208 -2.656,-3.756 V 45.8095 l 9.714,17.7765 h -3.073 c -0.734,0 -1.328,0.595 -1.328,1.328 0,0.734 0.594,1.328 1.328,1.328 h 3.392 z"
     id="path8186"
     inkscape:connector-curvature="0"
     style="fill:#caac7d" />
  <path
     d="m 34.301,43.853 c -0.641,-0.357 -1.449,-0.1267 -1.806,0.5143 -1.882,3.3803 -3.082,7.0259 -3.578,10.8517 H 27.328 C 26.595,55.219 26,55.813 26,56.547 v 5.312 c 0,0.734 0.595,1.328 1.328,1.328 h 5.313 c 0.733,0 1.328,-0.594 1.328,-1.328 v -5.312 c 0,-0.734 -0.595,-1.328 -1.328,-1.328 h -1.046 c 0.479,-3.3667 1.559,-6.5761 3.221,-9.5595 0.357,-0.6408 0.126,-1.4496 -0.515,-1.8065 z m -2.989,16.678 h -2.656 v -2.656 h 1.448 c 0.001,0 0.001,0 0.002,0 0,0 0,0 10e-4,0 h 1.205 z"
     id="path8188"
     inkscape:connector-curvature="0"
     style="fill:#caac7d" />
  <path
     d="m 90.016,26 c -1.732,0 -3.208,1.1104 -3.756,2.6562 H 63.984 V 27.3281 C 63.984,26.5946 63.39,26 62.656,26 h -5.312 c -0.734,0 -1.328,0.5946 -1.328,1.3281 v 1.3281 H 33.74 C 33.192,27.1104 31.716,26 29.984,26 27.787,26 26,27.7874 26,29.9844 c 0,2.197 1.787,3.9844 3.984,3.9844 1.732,0 3.208,-1.1105 3.756,-2.6563 h 13.352 c -2.832,1.1854 -5.43,2.7241 -7.568,4.5268 -0.561,0.4728 -0.633,1.3107 -0.16,1.8714 0.263,0.3118 0.638,0.4722 1.016,0.4722 0.303,0 0.606,-0.1025 0.856,-0.3127 3.81,-3.2124 9.248,-5.5068 14.78,-6.2763 v 1.0467 c 0,0.7335 0.594,1.3282 1.328,1.3282 h 5.312 c 0.734,0 1.328,-0.5947 1.328,-1.3282 v -1.0467 c 5.532,0.7695 10.97,3.0639 14.78,6.2762 0.25,0.2101 0.553,0.3128 0.856,0.3127 0.378,0 0.753,-0.1605 1.016,-0.4722 0.473,-0.5606 0.401,-1.3985 -0.16,-1.8713 -2.138,-1.8027 -4.736,-3.3414 -7.568,-4.5268 H 86.26 c 0.548,1.5458 2.024,2.6563 3.756,2.6563 2.197,0 3.984,-1.7874 3.984,-3.9844 C 94,27.7874 92.213,26 90.016,26 Z m -60.032,5.3125 c -0.732,0 -1.328,-0.5958 -1.328,-1.3281 0,-0.7324 0.596,-1.3282 1.328,-1.3282 0.733,0 1.328,0.5958 1.328,1.3282 0,0.7323 -0.595,1.3281 -1.328,1.3281 z m 31.344,-1.3281 v 0.1195 1.2086 h -2.656 v -1.2086 -0.1195 -1.3282 h 2.656 z m 28.688,1.3281 c -0.733,0 -1.328,-0.5958 -1.328,-1.3281 0,-0.7324 0.595,-1.3282 1.328,-1.3282 0.732,0 1.328,0.5958 1.328,1.3282 0,0.7323 -0.596,1.3281 -1.328,1.3281 z"
     id="path8190"
     inkscape:connector-curvature="0"
     style="fill:#caac7d" />
</svg>
