<?xml version="1.0" encoding="UTF-8" standalone="no"?>
<svg
   xmlns:dc="http://purl.org/dc/elements/1.1/"
   xmlns:cc="http://creativecommons.org/ns#"
   xmlns:rdf="http://www.w3.org/1999/02/22-rdf-syntax-ns#"
   xmlns:svg="http://www.w3.org/2000/svg"
   xmlns="http://www.w3.org/2000/svg"
   xmlns:sodipodi="http://sodipodi.sourceforge.net/DTD/sodipodi-0.dtd"
   xmlns:inkscape="http://www.inkscape.org/namespaces/inkscape"
   width="120"
   height="120"
   viewBox="0 0 120 120"
   version="1.1"
   id="svg8798"
   sodipodi:docname="9_упаковка_франшиз.svg"
   inkscape:version="0.92.1 r15371"
   style="fill:none">
  <metadata
     id="metadata8802">
    <rdf:RDF>
      <cc:Work
         rdf:about="">
        <dc:format>image/svg+xml</dc:format>
        <dc:type
           rdf:resource="http://purl.org/dc/dcmitype/StillImage" />
      </cc:Work>
    </rdf:RDF>
  </metadata>
  <sodipodi:namedview
     pagecolor="#ffffff"
     bordercolor="#666666"
     borderopacity="1"
     objecttolerance="10"
     gridtolerance="10"
     guidetolerance="10"
     inkscape:pageopacity="0"
     inkscape:pageshadow="2"
     inkscape:window-width="1222"
     inkscape:window-height="801"
     id="namedview8800"
     showgrid="false"
     inkscape:zoom="0.78666667"
     inkscape:cx="-168.81356"
     inkscape:cy="17.000001"
     inkscape:window-x="0"
     inkscape:window-y="0"
     inkscape:window-maximized="0"
     inkscape:current-layer="svg8798"
     showguides="false" />
  <circle
     cx="60"
     cy="60"
     r="60"
     id="circle8769"
     style="fill:#ffffff" />
  <g
     clip-path="url(#clip0)"
     id="g8791"
     transform="translate(-125,-47)">
    <path
       d="m 213.953,127.455 c -2.324,0 -4.284,1.578 -4.869,3.719 h -4.429 v -0.044 c 0,-0.734 -0.595,-1.329 -1.328,-1.329 -0.734,0 -1.328,0.595 -1.328,1.329 v 1.372 c 0,0.733 0.594,1.328 1.328,1.328 h 5.757 c 0.585,2.141 2.545,3.719 4.869,3.719 2.783,0 5.047,-2.264 5.047,-5.047 0,-2.783 -2.264,-5.047 -5.047,-5.047 z m 0,7.438 c -1.319,0 -2.391,-1.073 -2.391,-2.391 0,-1.318 1.073,-2.391 2.391,-2.391 1.318,0 2.39,1.073 2.39,2.391 0,1.318 -1.072,2.391 -2.39,2.391 z"
       id="path8773"
       inkscape:connector-curvature="0"
       style="fill:#caac7d" />
    <path
       d="m 166.673,80.1697 h -5.757 c -0.585,-2.1405 -2.545,-3.719 -4.869,-3.719 -2.783,0 -5.047,2.2642 -5.047,5.0473 0,2.783 2.264,5.0472 5.047,5.0472 2.324,0 4.284,-1.5784 4.869,-3.719 h 4.429 c 0,0.7334 0.595,1.3283 1.328,1.3283 0.734,0 1.328,-0.5948 1.328,-1.3283 V 81.498 c 0,-0.7334 -0.594,-1.3283 -1.328,-1.3283 z m -10.626,3.719 c -1.318,0 -2.39,-1.0726 -2.39,-2.3907 0,-1.3182 1.072,-2.3908 2.39,-2.3908 1.318,0 2.391,1.0726 2.391,2.3908 0,1.3181 -1.072,2.3907 -2.391,2.3907 z"
       id="path8775"
       inkscape:connector-curvature="0"
       style="fill:#caac7d" />
    <path
       d="m 209.463,101.11 h -2.838 c -0.497,-1.8307 -1.226,-3.5914 -2.169,-5.2394 l 2.005,-2.0056 c 0.447,-0.4466 0.693,-1.0407 0.693,-1.6724 0,-0.6316 -0.246,-1.2257 -0.693,-1.6722 l -4.984,-4.9845 c -0.447,-0.4466 -1.041,-0.6927 -1.672,-0.6927 -0.632,0 -1.226,0.2461 -1.673,0.6926 l -2.005,2.0057 c -1.649,-0.9439 -3.409,-1.6726 -5.24,-2.169 v -2.8377 c 0,-1.304 -1.061,-2.3649 -2.365,-2.3649 h -7.049 c -1.304,0 -2.365,1.0609 -2.365,2.3649 v 2.8448 c -1.829,0.4982 -3.586,1.228 -5.23,2.1716 l -2.016,-2.015 c -0.446,-0.4466 -1.04,-0.6927 -1.672,-0.6927 -0.632,0 -1.226,0.2461 -1.672,0.6926 l -4.985,4.9844 c -0.446,0.4467 -0.692,1.0407 -0.692,1.6724 0,0.6317 0.246,1.2257 0.692,1.6722 l 2.023,2.0226 c -0.94,1.6435 -1.665,3.3983 -2.16,5.2233 h -2.864 c -1.304,0 -2.365,1.061 -2.365,2.365 v 7.049 c 0,1.304 1.061,2.365 2.365,2.365 h 2.871 c 0.497,1.822 1.223,3.573 2.162,5.213 l -2.032,2.032 c -0.446,0.447 -0.692,1.041 -0.692,1.672 0,0.632 0.246,1.226 0.692,1.673 l 4.985,4.984 c 0.446,0.447 1.04,0.693 1.672,0.693 0.632,0 1.226,-0.246 1.672,-0.693 l 2.032,-2.032 c 1.64,0.939 3.392,1.666 5.214,2.162 v 2.871 c 0,1.304 1.061,2.365 2.365,2.365 h 7.049 c 1.304,0 2.365,-1.061 2.365,-2.365 v -2.864 c 1.824,-0.494 3.579,-1.22 5.223,-2.159 l 2.022,2.022 c 0.447,0.447 1.041,0.693 1.673,0.693 0.631,0 1.225,-0.246 1.672,-0.693 l 4.984,-4.984 c 0.447,-0.447 0.693,-1.041 0.693,-1.673 0,-0.631 -0.246,-1.226 -0.693,-1.672 l -2.015,-2.015 c 0.944,-1.645 1.674,-3.402 2.172,-5.231 h 2.845 c 1.304,0 2.364,-1.06 2.364,-2.365 v -7.049 c 0.001,-1.304 -1.06,-2.365 -2.364,-2.365 z m -0.292,9.123 h -2.777 c -1.076,0 -2.016,0.724 -2.286,1.76 -0.457,1.747 -1.153,3.423 -2.068,4.981 -0.544,0.926 -0.392,2.104 0.369,2.865 l 1.968,1.968 -4.573,4.573 -1.975,-1.975 c -0.76,-0.761 -1.937,-0.913 -2.861,-0.371 -1.557,0.911 -3.231,1.603 -4.975,2.056 -1.038,0.27 -1.763,1.21 -1.763,2.287 v 2.797 h -6.466 v -2.804 c 0,-1.075 -0.724,-2.015 -1.76,-2.286 -1.741,-0.455 -3.412,-1.148 -4.966,-2.059 -0.926,-0.543 -2.103,-0.391 -2.864,0.37 l -1.984,1.985 -4.573,-4.573 1.985,-1.984 c 0.761,-0.761 0.913,-1.938 0.37,-2.864 -0.911,-1.554 -1.604,-3.225 -2.059,-4.966 -0.271,-1.036 -1.211,-1.76 -2.286,-1.76 h -2.804 v -6.466 h 2.798 c 1.076,0 2.016,-0.725 2.286,-1.764 0.453,-1.743 1.146,-3.4166 2.057,-4.9733 0.541,-0.9251 0.389,-2.1018 -0.371,-2.862 l -1.975,-1.9751 4.572,-4.5723 1.968,1.9679 c 0.761,0.761 1.939,0.9133 2.865,0.3691 1.558,-0.9158 3.234,-1.6114 4.981,-2.0679 1.036,-0.2707 1.76,-1.2107 1.76,-2.2859 v -2.7772 h 6.466 v 2.7707 c 0,1.0765 0.725,2.0168 1.763,2.2868 1.75,0.4548 3.429,1.1496 4.99,2.0652 0.925,0.5426 2.102,0.3904 2.863,-0.3701 l 1.958,-1.9583 4.573,4.5723 -1.958,1.9583 c -0.761,0.7606 -0.913,1.9382 -0.371,2.8636 0.916,1.5611 1.611,3.2402 2.066,4.9892 0.27,1.038 1.21,1.763 2.286,1.763 h 2.771 z"
       id="path8777"
       inkscape:connector-curvature="0"
       style="fill:#caac7d" />
    <path
       d="m 190.375,92.2742 c -0.689,-0.2519 -1.452,0.1026 -1.703,0.792 -0.252,0.689 0.103,1.4516 0.792,1.7032 5.114,1.8681 8.55,6.7836 8.55,12.2306 0,7.177 -5.839,13.017 -13.017,13.017 -7.177,0 -13.017,-5.84 -13.017,-13.017 0,-5.375 3.228,-10.1265 8.224,-12.1062 0.682,-0.2702 1.016,-1.0423 0.745,-1.7241 -0.27,-0.6819 -1.042,-1.0155 -1.724,-0.7454 -2.887,1.1443 -5.351,3.1038 -7.124,5.6669 -1.817,2.6248 -2.777,5.7058 -2.777,8.9088 0,8.642 7.031,15.673 15.673,15.673 8.642,0 15.673,-7.031 15.673,-15.673 0,-6.559 -4.137,-12.4764 -10.295,-14.7258 z"
       id="path8779"
       inkscape:connector-curvature="0"
       style="fill:#caac7d" />
    <path
       d="m 185.072,91.327 -0.075,-1e-4 c -0.733,0 -1.328,0.5947 -1.328,1.3283 0,0.7334 0.595,1.3282 1.328,1.3282 l 0.059,2e-4 c 0.003,0 0.005,0 0.008,0 0.73,0 1.324,-0.5896 1.328,-1.3205 0.004,-0.7335 -0.587,-1.3317 -1.32,-1.3361 z"
       id="path8781"
       inkscape:connector-curvature="0"
       style="fill:#caac7d" />
    <path
       d="m 192.733,101.187 h -2.814 c -0.733,0 -1.328,0.595 -1.328,1.328 0,0.613 0.416,1.128 0.981,1.281 l -3.279,3.279 -2.736,-2.736 c -0.518,-0.518 -1.359,-0.518 -1.878,0 l -2.494,2.494 c -0.518,0.518 -0.518,1.36 0,1.878 0.519,0.519 1.36,0.519 1.879,0 l 1.554,-1.554 2.736,2.735 c 0.249,0.249 0.587,0.389 0.939,0.389 0.352,0 0.69,-0.14 0.939,-0.389 l 4.219,-4.219 c 0.153,0.566 0.668,0.984 1.282,0.984 0.733,0 1.328,-0.595 1.328,-1.329 v -2.813 c 0,-0.733 -0.595,-1.328 -1.328,-1.328 z"
       id="path8783"
       inkscape:connector-curvature="0"
       style="fill:#caac7d" />
    <path
       d="m 178.008,109.888 c -0.247,-0.247 -0.588,-0.39 -0.939,-0.39 -0.349,0 -0.692,0.143 -0.939,0.39 -0.247,0.248 -0.389,0.589 -0.389,0.939 0,0.349 0.142,0.692 0.389,0.939 0.247,0.247 0.59,0.389 0.939,0.389 0.351,0 0.692,-0.142 0.939,-0.389 0.248,-0.247 0.389,-0.59 0.389,-0.939 0,-0.35 -0.141,-0.693 -0.389,-0.939 z"
       id="path8785"
       inkscape:connector-curvature="0"
       style="fill:#caac7d" />
    <path
       d="m 213.953,76.4507 c -2.324,0 -4.284,1.5785 -4.869,3.719 h -5.757 c -0.733,0 -1.328,0.5947 -1.328,1.3283 v 1.3282 c 0,0.7334 0.594,1.3283 1.328,1.3283 0.733,0 1.328,-0.5948 1.328,-1.3283 h 4.429 c 0.585,2.1406 2.545,3.719 4.869,3.719 2.783,0 5.047,-2.2642 5.047,-5.0472 0,-2.7831 -2.264,-5.0473 -5.047,-5.0473 z m 0,7.438 c -1.319,0 -2.391,-1.0726 -2.391,-2.3907 0,-1.3182 1.073,-2.3908 2.391,-2.3908 1.318,0 2.39,1.0726 2.39,2.3908 0,1.3181 -1.072,2.3907 -2.39,2.3907 z"
       id="path8787"
       inkscape:connector-curvature="0"
       style="fill:#caac7d" />
    <path
       d="m 166.673,129.801 c -0.733,0 -1.328,0.595 -1.328,1.329 v 0.044 h -4.429 c -0.585,-2.141 -2.545,-3.719 -4.869,-3.719 -2.783,0 -5.047,2.264 -5.047,5.047 0,2.783 2.264,5.047 5.047,5.047 2.324,0 4.284,-1.578 4.869,-3.719 h 5.757 c 0.733,0 1.328,-0.594 1.328,-1.328 v -1.372 c 0,-0.734 -0.594,-1.329 -1.328,-1.329 z m -10.626,5.092 c -1.318,0 -2.39,-1.073 -2.39,-2.391 0,-1.318 1.072,-2.391 2.39,-2.391 1.318,0 2.391,1.073 2.391,2.391 0,1.318 -1.072,2.391 -2.391,2.391 z"
       id="path8789"
       inkscape:connector-curvature="0"
       style="fill:#caac7d" />
  </g>
  <defs
     id="defs8796">
    <clipPath
       id="clip0">
      <rect
         width="68"
         height="68"
         transform="translate(151,73)"
         id="rect8793"
         x="0"
         y="0"
         style="fill:#ffffff" />
    </clipPath>
  </defs>
</svg>
