<?xml version="1.0" encoding="UTF-8" standalone="no"?>
<!-- Created with Inkscape (http://www.inkscape.org/) -->

<svg
   xmlns:dc="http://purl.org/dc/elements/1.1/"
   xmlns:cc="http://creativecommons.org/ns#"
   xmlns:rdf="http://www.w3.org/1999/02/22-rdf-syntax-ns#"
   xmlns:svg="http://www.w3.org/2000/svg"
   xmlns="http://www.w3.org/2000/svg"
   xmlns:sodipodi="http://sodipodi.sourceforge.net/DTD/sodipodi-0.dtd"
   xmlns:inkscape="http://www.inkscape.org/namespaces/inkscape"
   width="150.8125mm"
   height="59.53125mm"
   viewBox="0 0 150.8125 59.53125"
   version="1.1"
   id="svg5291"
   sodipodi:docname="bckgr_small_block.svg"
   inkscape:version="0.92.1 r15371">
  <defs
     id="defs5285" />
  <sodipodi:namedview
     id="base"
     pagecolor="#ffffff"
     bordercolor="#666666"
     borderopacity="1.0"
     inkscape:pageopacity="0.0"
     inkscape:pageshadow="2"
     inkscape:zoom="0.35"
     inkscape:cx="-119.91257"
     inkscape:cy="368.01152"
     inkscape:document-units="mm"
     inkscape:current-layer="layer1"
     showgrid="false"
     inkscape:window-width="1364"
     inkscape:window-height="848"
     inkscape:window-x="2217"
     inkscape:window-y="60"
     inkscape:window-maximized="0" />
  <metadata
     id="metadata5288">
    <rdf:RDF>
      <cc:Work
         rdf:about="">
        <dc:format>image/svg+xml</dc:format>
        <dc:type
           rdf:resource="http://purl.org/dc/dcmitype/StillImage" />
      </cc:Work>
    </rdf:RDF>
  </metadata>
  <g
     inkscape:label="Layer 1"
     inkscape:groupmode="layer"
     id="layer1"
     transform="translate(606.84076,163.65848)">
    <rect
       style="fill:#caac7d;fill-opacity:0.2;stroke-width:0.26458332"
       id="rect238"
       height="59.53125"
       width="150.8125"
       y="-163.65848"
       x="-606.84076" />
    <path
       style="fill:none;stroke:#caac7d;stroke-width:0.79374999"
       inkscape:connector-curvature="0"
       id="path240"
       d="m -599.30015,-158.36682 c 0,1.2409 -1.007,2.24896 -2.24896,2.24896 -1.24195,0 -2.24896,-1.00806 -2.24896,-2.24896 0,-1.24089 1.00701,-2.24895 2.24896,-2.24895 1.24196,0 2.24896,1.00806 2.24896,2.24895 z" />
    <circle
       style="fill:#caac7d;stroke-width:0.26458332"
       id="circle242"
       r="1.4431829"
       cy="-158.36682"
       cx="-601.54913" />
    <path
       style="fill:none;stroke:#caac7d;stroke-width:0.79374999"
       inkscape:connector-curvature="0"
       id="path244"
       d="m -461.31994,-156.11786 c -1.24195,0 -2.24896,-1.00806 -2.24896,-2.24896 0,-1.24089 1.00701,-2.24895 2.24896,-2.24895 1.24196,0 2.24896,1.00806 2.24896,2.24895 0,1.2409 -1.007,2.24896 -2.24896,2.24896 z" />
    <circle
       style="fill:#caac7d;stroke-width:0.26458332"
       id="circle246"
       transform="rotate(90)"
       r="1.4431829"
       cy="461.31995"
       cx="-158.36682" />
    <path
       style="fill:none;stroke:#caac7d;stroke-width:0.79374999"
       inkscape:connector-curvature="0"
       id="path248"
       d="m -601.54911,-111.66786 c 1.24196,0 2.24896,1.00806 2.24896,2.24896 0,1.2409 -1.007,2.24896 -2.24896,2.24896 -1.24195,0 -2.24896,-1.00806 -2.24896,-2.24896 0,-1.2409 1.00701,-2.24896 2.24896,-2.24896 z" />
    <circle
       style="fill:#caac7d;stroke-width:0.26458332"
       id="circle250"
       transform="rotate(-90)"
       r="1.4431829"
       cy="-601.54913"
       cx="109.4189" />
    <path
       style="fill:none;stroke:#caac7d;stroke-width:0.79374999"
       inkscape:connector-curvature="0"
       id="path252"
       d="m -463.5689,-109.4189 c 0,-1.2409 1.00701,-2.24896 2.24896,-2.24896 1.24196,0 2.24896,1.00806 2.24896,2.24896 0,1.2409 -1.007,2.24896 -2.24896,2.24896 -1.24195,0 -2.24896,-1.00806 -2.24896,-2.24896 z" />
    <circle
       style="fill:#caac7d;stroke-width:0.26458332"
       id="circle254"
       transform="scale(-1)"
       r="1.4431829"
       cy="109.4189"
       cx="461.31995" />
  </g>
</svg>
