<?xml version="1.0" encoding="UTF-8" standalone="no"?>
<!-- Created with Inkscape (http://www.inkscape.org/) -->

<svg
   xmlns:dc="http://purl.org/dc/elements/1.1/"
   xmlns:cc="http://creativecommons.org/ns#"
   xmlns:rdf="http://www.w3.org/1999/02/22-rdf-syntax-ns#"
   xmlns:svg="http://www.w3.org/2000/svg"
   xmlns="http://www.w3.org/2000/svg"
   xmlns:sodipodi="http://sodipodi.sourceforge.net/DTD/sodipodi-0.dtd"
   xmlns:inkscape="http://www.inkscape.org/namespaces/inkscape"
   width="31.75mm"
   height="31.75mm"
   viewBox="0 0 31.75 31.75"
   version="1.1"
   id="svg5305"
   inkscape:version="0.92.1 r15371"
   sodipodi:docname="case_1_клиенты.svg">
  <defs
     id="defs5299" />
  <sodipodi:namedview
     id="base"
     pagecolor="#ffffff"
     bordercolor="#666666"
     borderopacity="1.0"
     inkscape:pageopacity="0.0"
     inkscape:pageshadow="2"
     inkscape:zoom="0.35"
     inkscape:cx="1985.7143"
     inkscape:cy="-1022.8571"
     inkscape:document-units="mm"
     inkscape:current-layer="layer1"
     showgrid="false"
     inkscape:window-width="751"
     inkscape:window-height="405"
     inkscape:window-x="2231"
     inkscape:window-y="205"
     inkscape:window-maximized="0" />
  <metadata
     id="metadata5302">
    <rdf:RDF>
      <cc:Work
         rdf:about="">
        <dc:format>image/svg+xml</dc:format>
        <dc:type
           rdf:resource="http://purl.org/dc/dcmitype/StillImage" />
        <dc:title></dc:title>
      </cc:Work>
    </rdf:RDF>
  </metadata>
  <g
     inkscape:label="Layer 1"
     inkscape:groupmode="layer"
     id="layer1"
     transform="translate(555.625,153.54762)">
    <g
       transform="matrix(0.26458333,0,0,0.26458333,-718.1561,-687.99871)"
       id="g5282">
      <circle
         cx="674.29077"
         cy="2079.9727"
         r="60"
         id="circle256"
         style="fill:#ffffff" />
      <path
         d="m 662.26078,2046.4527 c -3.146,0 -5.706,2.56 -5.706,5.71 0,3.15 2.56,5.71 5.706,5.71 3.147,0 5.706,-2.56 5.706,-5.71 0,-3.15 -2.559,-5.71 -5.706,-5.71 z m 0,8.76 c -1.681,0 -3.049,-1.37 -3.049,-3.05 0,-1.68 1.368,-3.05 3.049,-3.05 1.682,0 3.05,1.37 3.05,3.05 0,1.68 -1.368,3.05 -3.05,3.05 z"
         id="path258"
         inkscape:connector-curvature="0"
         style="fill:#caac7d" />
      <path
         d="m 688.13478,2046.4527 c -3.146,0 -5.706,2.56 -5.706,5.71 0,3.15 2.56,5.71 5.706,5.71 3.147,0 5.706,-2.56 5.706,-5.71 0,-3.15 -2.559,-5.71 -5.706,-5.71 z m 0,8.76 c -1.681,0 -3.049,-1.37 -3.049,-3.05 0,-1.68 1.368,-3.05 3.049,-3.05 1.682,0 3.05,1.37 3.05,3.05 0,1.68 -1.368,3.05 -3.05,3.05 z"
         id="path260"
         inkscape:connector-curvature="0"
         style="fill:#caac7d" />
      <path
         d="m 706.96278,2110.8327 h -6.807 l -0.061,-28.45 c -10e-4,-0.73 -0.595,-1.32 -1.328,-1.32 -0.001,0 -0.002,0 -0.003,0 -0.733,0 -1.326,0.59 -1.325,1.33 l 0.061,28.44 h -8.245 l -0.061,-31.08 c 0,-0.08 -0.009,-0.16 -0.022,-0.24 v -1.5 c 0,-1.31 -0.199,-2.6 -0.591,-3.85 1.406,-0.77 2.988,-1.18 4.629,-1.19 0.007,0 0.014,0 0.021,0 2.511,0 4.871,0.95 6.646,2.66 1.77,1.71 2.748,3.98 2.753,6.4 l 0.021,5.93 c 0.003,0.73 0.597,1.33 1.328,1.33 0.002,0 0.003,0 0.005,0 0.733,-0.01 1.326,-0.6 1.323,-1.34 l -0.021,-5.93 c -0.007,-3.14 -1.272,-6.09 -3.564,-8.3 -1.243,-1.2 -2.708,-2.1 -4.303,-2.68 1.15,-1.19 1.781,-2.75 1.778,-4.4 -0.008,-3.49 -2.844,-6.32 -6.325,-6.32 -0.004,0 -0.009,0 -0.014,0 -3.487,0.01 -6.318,2.85 -6.311,6.34 0.004,1.69 0.665,3.28 1.862,4.47 0.04,0.04 0.08,0.08 0.121,0.11 -0.343,0.15 -0.679,0.3 -1.008,0.48 -1.62,-2.9 -4.266,-5.05 -7.396,-6.11 1.339,-1.28 2.177,-3.07 2.177,-5.06 0,-3.86 -3.138,-7 -6.995,-7 -3.857,0 -6.994,3.14 -6.994,7 0,2.09 0.925,3.97 2.387,5.25 -2.886,1.11 -5.321,3.17 -6.851,5.88 -0.465,-0.24 -0.944,-0.45 -1.434,-0.63 1.108,-1.14 1.792,-2.69 1.792,-4.4 0,-3.49 -2.837,-6.33 -6.324,-6.33 -3.488,0 -6.325,2.84 -6.325,6.33 0,1.8 0.76,3.43 1.976,4.58 -4.334,1.78 -7.384,5.96 -7.384,10.82 v 5.93 c 0,0.73 0.595,1.33 1.328,1.33 0.734,0 1.328,-0.6 1.328,-1.33 v -5.93 c 0,-5.01 4.218,-9.08 9.401,-9.08 1.619,0 3.182,0.4 4.577,1.15 -0.401,1.26 -0.604,2.56 -0.604,3.89 v 10.38 0.91 21.53 h -8.009 v -28.43 c 0,-0.74 -0.595,-1.33 -1.328,-1.33 -0.734,0 -1.328,0.59 -1.328,1.33 v 28.43 h -9.897 c -0.733,0 -1.328,0.6 -1.328,1.33 0,0.73 0.595,1.33 1.328,1.33 h 11.225 54.119 c 0.733,0 1.328,-0.6 1.328,-1.33 0,-0.73 -0.595,-1.33 -1.328,-1.33 z m -14.099,-47.85 c 0.003,0 0.005,0 0.008,0 2.019,0 3.664,1.64 3.669,3.66 0.002,0.98 -0.378,1.9 -1.069,2.6 -0.692,0.69 -1.612,1.08 -2.592,1.08 -0.003,0 -0.005,0 -0.008,0 -0.977,0 -1.896,-0.38 -2.589,-1.07 -0.694,-0.69 -1.077,-1.61 -1.08,-2.59 -0.004,-2.03 1.638,-3.68 3.661,-3.68 z m -34.98,7.34 c -2.023,0 -3.669,-1.65 -3.669,-3.67 0,-2.02 1.646,-3.67 3.669,-3.67 2.022,0 3.668,1.65 3.668,3.67 0,2.02 -1.646,3.67 -3.668,3.67 z m 17.424,-14.11 c 2.393,0 4.339,1.94 4.339,4.34 0,2.39 -1.946,4.33 -4.339,4.33 -2.392,0 -4.338,-1.94 -4.338,-4.33 0,-2.4 1.946,-4.34 4.338,-4.34 z m -7.043,54.62 h -3.428 v -16.35 c 0.971,0.71 2.149,1.17 3.428,1.27 z m 13.691,-33.75 c -0.733,0 -1.328,0.59 -1.328,1.32 v 32.43 h -3.82 v -16.04 c 0,-0.73 -0.594,-1.32 -1.328,-1.32 -0.733,0 -1.328,0.59 -1.328,1.32 v 16.04 h -3.231 v -32.43 c 0,-0.73 -0.595,-1.32 -1.328,-1.32 -0.733,0 -1.328,0.59 -1.328,1.32 v 14.68 c -1.934,-0.26 -3.428,-1.86 -3.428,-3.78 v -0.91 -10.38 c 0,-1.36 0.267,-2.68 0.792,-3.93 10e-4,0 0.002,-0.01 0.003,-0.01 1.67,-3.97 5.612,-6.53 10.044,-6.53 4.454,0 8.404,2.58 10.064,6.57 0.514,1.24 0.776,2.56 0.776,3.9 v 11.29 c 0,1.86 -1.394,3.41 -3.231,3.75 v -14.65 c 0,-0.73 -0.595,-1.32 -1.329,-1.32 z m 1.328,33.75 v -15.1 c 1.226,-0.13 2.351,-0.6 3.282,-1.29 l 0.032,16.39 z"
         id="path262"
         inkscape:connector-curvature="0"
         style="fill:#caac7d" />
      <path
         d="m 703.97978,2094.5127 c 0.733,0 1.328,-0.6 1.328,-1.33 0,-0.73 -0.595,-1.33 -1.328,-1.33 -0.734,0 -1.328,0.6 -1.328,1.33 0,0.73 0.594,1.33 1.328,1.33 z"
         id="path264"
         inkscape:connector-curvature="0"
         style="fill:#caac7d" />
      <path
         d="m 647.47878,2094.5127 c 0.733,0 1.328,-0.6 1.328,-1.33 0,-0.73 -0.595,-1.33 -1.328,-1.33 -0.734,0 -1.328,0.6 -1.328,1.33 0,0.73 0.594,1.33 1.328,1.33 z"
         id="path266"
         inkscape:connector-curvature="0"
         style="fill:#caac7d" />
    </g>
  </g>
</svg>
