<?xml version="1.0" encoding="UTF-8" standalone="no"?>
<!-- Created with Inkscape (http://www.inkscape.org/) -->

<svg
   xmlns:dc="http://purl.org/dc/elements/1.1/"
   xmlns:cc="http://creativecommons.org/ns#"
   xmlns:rdf="http://www.w3.org/1999/02/22-rdf-syntax-ns#"
   xmlns:svg="http://www.w3.org/2000/svg"
   xmlns="http://www.w3.org/2000/svg"
   xmlns:sodipodi="http://sodipodi.sourceforge.net/DTD/sodipodi-0.dtd"
   xmlns:inkscape="http://www.inkscape.org/namespaces/inkscape"
   width="31.75mm"
   height="31.75mm"
   viewBox="0 0 31.75 31.75"
   version="1.1"
   id="svg9879"
   inkscape:version="0.92.1 r15371"
   sodipodi:docname="case_1_управление.svg">
  <defs
     id="defs9873">
    <clipPath
       id="clip1">
      <rect
         style="fill:#ffffff"
         y="0"
         x="0"
         width="67.867203"
         height="68"
         transform="translate(1050,1336)"
         id="rect570" />
    </clipPath>
  </defs>
  <sodipodi:namedview
     id="base"
     pagecolor="#ffffff"
     bordercolor="#666666"
     borderopacity="1.0"
     inkscape:pageopacity="0.0"
     inkscape:pageshadow="2"
     inkscape:zoom="0.35"
     inkscape:cx="1954.2857"
     inkscape:cy="-1025.7143"
     inkscape:document-units="mm"
     inkscape:current-layer="layer1"
     showgrid="false"
     inkscape:window-width="1920"
     inkscape:window-height="1058"
     inkscape:window-x="1912"
     inkscape:window-y="2"
     inkscape:window-maximized="1" />
  <metadata
     id="metadata9876">
    <rdf:RDF>
      <cc:Work
         rdf:about="">
        <dc:format>image/svg+xml</dc:format>
        <dc:type
           rdf:resource="http://purl.org/dc/dcmitype/StillImage" />
        <dc:title></dc:title>
      </cc:Work>
    </rdf:RDF>
  </metadata>
  <g
     inkscape:label="Layer 1"
     inkscape:groupmode="layer"
     id="layer1"
     transform="translate(547.30951,154.30357)">
    <circle
       style="fill:#ffffff;stroke-width:0.26458332"
       id="circle222"
       r="15.875"
       cy="-138.42857"
       cx="-531.43451" />
    <g
       transform="matrix(0.26458333,0,0,0.26458333,-818.24285,-500.90774)"
       id="g232"
       clip-path="url(#clip1)">
      <path
         style="fill:#caac7d"
         inkscape:connector-curvature="0"
         id="path224"
         d="m 1081.32,1382.12 c 0.51,-0.52 0.51,-1.36 0,-1.88 -0.52,-0.52 -1.36,-0.52 -1.88,0 -0.52,0.52 -0.52,1.36 0,1.88 0.52,0.52 1.36,0.52 1.88,0 z" />
      <path
         style="fill:#caac7d"
         inkscape:connector-curvature="0"
         id="path226"
         d="m 1075.03,1350.61 c 0,8.05 6.55,14.6 14.6,14.6 8.06,0 14.61,-6.55 14.61,-14.6 0,-8.06 -6.55,-14.61 -14.61,-14.61 -8.05,0 -14.6,6.55 -14.6,14.61 z m 26.55,0 c 0,6.58 -5.36,11.95 -11.95,11.95 -6.59,0 -11.95,-5.37 -11.95,-11.95 0,-6.59 5.36,-11.95 11.95,-11.95 6.59,0 11.95,5.36 11.95,11.95 z" />
      <path
         style="fill:#caac7d"
         inkscape:connector-curvature="0"
         id="path228"
         d="m 1065.36,1403.61 c 0.51,0.52 1.35,0.52 1.87,0.01 l 6.44,-6.34 c 1.09,-1.1 1.43,-2.72 0.95,-4.12 l 1.38,-1.34 c 0.75,-0.72 1.73,-1.12 2.77,-1.12 h 17.65 c 3.13,0 6.09,-1.2 8.33,-3.38 0.09,-0.09 -0.7,0.84 12.04,-14.39 1.89,-2.23 1.61,-5.59 -0.63,-7.48 -2.22,-1.88 -5.55,-1.61 -7.45,0.59 l -7.83,8.05 c -0.99,-1.22 -2.5,-1.97 -4.13,-1.97 h -14.81 c -2.1,-0.89 -4.34,-1.33 -6.65,-1.33 -6.39,0 -11.97,2.95 -14.97,8.49 -1.26,-0.24 -2.59,0.14 -3.55,1.1 l -6.32,6.33 c -0.51,0.52 -0.51,1.36 0,1.88 z m 9.93,-30.17 c 2.04,0 4,0.41 5.85,1.22 0.17,0.07 0.35,0.11 0.53,0.11 h 15.08 c 1.44,0 2.65,1.17 2.65,2.66 0,1.46 -1.19,2.65 -2.65,2.65 h -10.83 c -0.74,0 -1.33,0.6 -1.33,1.33 0,0.73 0.59,1.33 1.33,1.33 h 10.83 c 2.93,0 5.31,-2.39 5.31,-5.31 0,-0.24 -0.02,-0.47 -0.05,-0.7 7.58,-7.79 8.65,-8.88 8.7,-8.94 0.94,-1.12 2.62,-1.26 3.74,-0.31 1.12,0.94 1.26,2.62 0.31,3.74 l -11.91,14.24 c -1.74,1.67 -4.02,2.59 -6.43,2.59 h -17.65 c -1.73,0 -3.37,0.66 -4.61,1.86 l -1.13,1.09 -10.4,-10.4 c 2.43,-4.56 6.99,-7.16 12.66,-7.16 z m -16.64,8.81 c 0.44,-0.43 1.11,-0.51 1.64,-0.18 0.23,0.14 -0.43,-0.46 11.5,11.45 0.53,0.53 0.51,1.38 0.01,1.87 l -5.49,5.41 -13.04,-13.15 z" />
      <path
         style="fill:#caac7d"
         inkscape:connector-curvature="0"
         id="path230"
         d="m 1088.04,1342.64 v 1.55 c -1.55,0.55 -2.66,2.03 -2.66,3.76 0,2.2 1.79,3.98 3.99,3.98 0.73,0 1.33,0.6 1.33,1.33 0,0.73 -0.6,1.33 -1.33,1.33 -0.57,0 -1.18,-0.36 -1.73,-1.01 -0.47,-0.56 -1.31,-0.63 -1.87,-0.16 -0.56,0.47 -0.63,1.31 -0.16,1.87 0.71,0.85 1.55,1.44 2.43,1.73 v 1.55 c 0,0.74 0.59,1.33 1.33,1.33 0.73,0 1.33,-0.59 1.33,-1.33 v -1.55 c 1.54,-0.55 2.65,-2.03 2.65,-3.76 0,-2.2 -1.79,-3.98 -3.98,-3.98 -0.73,0 -1.33,-0.6 -1.33,-1.33 0,-0.73 0.6,-1.33 1.33,-1.33 0.47,0 0.97,0.24 1.43,0.7 0.53,0.51 1.37,0.49 1.88,-0.03 0.51,-0.53 0.5,-1.37 -0.03,-1.88 -0.67,-0.65 -1.35,-1.02 -1.95,-1.22 v -1.55 c 0,-0.73 -0.6,-1.33 -1.33,-1.33 -0.74,0 -1.33,0.6 -1.33,1.33 z" />
    </g>
  </g>
</svg>
