<?xml version="1.0" encoding="UTF-8" standalone="no"?>
<!-- Created with Inkscape (http://www.inkscape.org/) -->

<svg
   xmlns:dc="http://purl.org/dc/elements/1.1/"
   xmlns:cc="http://creativecommons.org/ns#"
   xmlns:rdf="http://www.w3.org/1999/02/22-rdf-syntax-ns#"
   xmlns:svg="http://www.w3.org/2000/svg"
   xmlns="http://www.w3.org/2000/svg"
   xmlns:sodipodi="http://sodipodi.sourceforge.net/DTD/sodipodi-0.dtd"
   xmlns:inkscape="http://www.inkscape.org/namespaces/inkscape"
   width="31.75mm"
   height="31.75mm"
   viewBox="0 0 31.75 31.75"
   version="1.1"
   id="svg6513"
   inkscape:version="0.92.1 r15371"
   sodipodi:docname="case_1_производство.svg">
  <defs
     id="defs6507">
    <clipPath
       id="clip3">
      <rect
         style="fill:#ffffff"
         y="0"
         x="0"
         width="68"
         height="68"
         transform="translate(450,2144)"
         id="rect576" />
    </clipPath>
  </defs>
  <sodipodi:namedview
     id="base"
     pagecolor="#ffffff"
     bordercolor="#666666"
     borderopacity="1.0"
     inkscape:pageopacity="0.0"
     inkscape:pageshadow="2"
     inkscape:zoom="0.35"
     inkscape:cx="1880"
     inkscape:cy="-1011.4286"
     inkscape:document-units="mm"
     inkscape:current-layer="layer1"
     showgrid="false"
     inkscape:window-width="1920"
     inkscape:window-height="1058"
     inkscape:window-x="1912"
     inkscape:window-y="2"
     inkscape:window-maximized="1" />
  <metadata
     id="metadata6510">
    <rdf:RDF>
      <cc:Work
         rdf:about="">
        <dc:format>image/svg+xml</dc:format>
        <dc:type
           rdf:resource="http://purl.org/dc/dcmitype/StillImage" />
        <dc:title></dc:title>
      </cc:Work>
    </rdf:RDF>
  </metadata>
  <g
     inkscape:label="Layer 1"
     inkscape:groupmode="layer"
     id="layer1"
     transform="translate(527.65476,150.52381)">
    <g
       transform="matrix(0.26458333,0,0,0.26458333,-690.18586,-752.44365)"
       id="g6488">
      <circle
         cx="674.29077"
         cy="2334.9727"
         r="60"
         id="circle332"
         style="fill:#ffffff" />
      <g
         transform="translate(190.29078,156.97272)"
         clip-path="url(#clip3)"
         id="g342">
        <path
           d="m 469.344,2168.61 c -0.519,-0.52 -1.359,-0.52 -1.878,0 l -0.014,0.01 c -0.518,0.52 -0.518,1.36 0,1.88 0.26,0.26 0.599,0.39 0.939,0.39 0.34,0 0.68,-0.13 0.939,-0.39 l 0.014,-0.01 c 0.518,-0.52 0.518,-1.36 0,-1.88 z"
           id="path334"
           inkscape:connector-curvature="0"
           style="fill:#caac7d" />
        <path
           d="m 508.311,2175.05 h -3.379 c -0.182,-0.68 -0.394,-1.36 -0.631,-2.03 -0.247,-0.69 -1.007,-1.05 -1.698,-0.8 -0.69,0.25 -1.05,1.01 -0.803,1.7 0.225,0.63 0.424,1.27 0.592,1.92 0.287,1.1 1.285,1.87 2.427,1.87 h 3.347 v 7.75 h -3.355 c -1.141,0 -2.138,0.76 -2.426,1.86 -0.525,2.01 -1.325,3.94 -2.378,5.73 -0.577,0.98 -0.416,2.23 0.392,3.04 l 2.377,2.38 -5.479,5.48 -2.384,-2.39 c -0.807,-0.8 -2.056,-0.97 -3.037,-0.39 -1.791,1.05 -3.715,1.84 -5.72,2.36 -1.102,0.29 -1.871,1.29 -1.871,2.43 v 3.38 h -7.748 v -3.39 c 0,-1.14 -0.768,-2.14 -1.868,-2.42 -2.002,-0.53 -3.923,-1.32 -5.71,-2.37 -0.982,-0.58 -2.231,-0.42 -3.039,0.39 l -2.395,2.4 -5.479,-5.48 2.396,-2.4 c 0.807,-0.8 0.969,-2.05 0.393,-3.04 -1.048,-1.78 -1.845,-3.7 -2.368,-5.71 -0.287,-1.1 -1.285,-1.86 -2.426,-1.86 h -3.385 v -7.75 h 3.377 c 1.142,0 2.14,-0.77 2.426,-1.87 0.522,-2.01 1.318,-3.93 2.366,-5.72 0.574,-0.98 0.412,-2.23 -0.395,-3.04 l -2.384,-2.38 5.478,-5.48 2.377,2.37 c 0.808,0.81 2.058,0.97 3.04,0.4 1.792,-1.06 3.719,-1.86 5.728,-2.38 1.1,-0.29 1.868,-1.29 1.868,-2.43 v -3.35 h 7.747 v 3.34 c 0,1.15 0.77,2.14 1.871,2.43 0.632,0.17 1.264,0.36 1.877,0.58 0.69,0.24 1.45,-0.12 1.696,-0.81 0.245,-0.69 -0.116,-1.45 -0.807,-1.69 -0.647,-0.24 -1.313,-0.44 -1.981,-0.62 v -3.38 c 0,-1.38 -1.126,-2.51 -2.51,-2.51 h -8.039 c -1.384,0 -2.51,1.13 -2.51,2.51 v 3.39 c -2.165,0.58 -4.244,1.44 -6.182,2.57 l -2.4,-2.4 c -0.978,-0.98 -2.571,-0.98 -3.55,0 l -5.684,5.68 c -0.979,0.98 -0.979,2.57 0,3.55 l 2.408,2.41 c -1.122,1.94 -1.98,4.01 -2.553,6.17 h -3.41 c -1.384,0 -2.51,1.13 -2.51,2.51 v 8.04 c 0,1.39 1.126,2.51 2.51,2.51 h 3.417 c 0.575,2.16 1.435,4.23 2.556,6.17 l -2.418,2.41 c -0.979,0.98 -0.979,2.58 0,3.55 l 5.684,5.69 c 0.979,0.98 2.572,0.98 3.55,0 l 2.419,-2.42 c 1.933,1.12 4.005,1.98 6.163,2.56 v 3.41 c 0,1.39 1.126,2.51 2.51,2.51 h 8.039 c 1.384,0 2.51,-1.12 2.51,-2.51 v -3.41 c 2.161,-0.57 4.237,-1.43 6.174,-2.55 l 2.408,2.41 c 0.979,0.98 2.571,0.98 3.55,0 l 5.684,-5.69 c 0.979,-0.97 0.979,-2.57 0,-3.55 l -2.399,-2.4 c 1.127,-1.93 1.99,-4.01 2.567,-6.18 h 3.387 c 1.384,0 2.51,-1.12 2.51,-2.51 v -8.04 c 0,-1.38 -1.126,-2.51 -2.51,-2.51 z"
           id="path336"
           inkscape:connector-curvature="0"
           style="fill:#caac7d" />
        <path
           d="m 517.676,2154.41 c -0.649,-1.57 -2.109,-2.55 -3.809,-2.55 l -3.709,-0.01 -0.01,-3.71 c -0.004,-1.7 -0.983,-3.16 -2.554,-3.81 -1.571,-0.65 -3.294,-0.31 -4.498,0.89 l -8.871,8.85 c -0.25,0.25 -0.391,0.59 -0.391,0.94 v 11.28 l -1.433,1.44 c -3.04,-2.64 -6.794,-4.14 -10.663,-4.43 v -1.55 c 0,-0.73 -0.594,-1.33 -1.328,-1.33 -0.733,0 -1.328,0.6 -1.328,1.33 v 1.55 c -2.31,0.17 -4.613,0.77 -6.78,1.84 -0.658,0.33 -0.928,1.12 -0.604,1.78 0.325,0.66 1.121,0.93 1.779,0.61 1.793,-0.89 3.694,-1.4 5.606,-1.56 v 1.18 c 0,0.74 0.594,1.33 1.328,1.33 0.733,0 1.328,-0.59 1.328,-1.33 v -1.18 c 3.178,0.27 6.257,1.51 8.78,3.64 l -3.781,3.78 c -1.752,-1.36 -3.946,-2.17 -6.327,-2.17 -5.712,0 -10.358,4.65 -10.358,10.36 0,5.71 4.646,10.36 10.358,10.36 5.711,0 10.358,-4.65 10.358,-10.36 0,-2.37 -0.805,-4.56 -2.154,-6.31 l 3.781,-3.78 c 2.149,2.55 3.356,5.62 3.621,8.76 h -1.176 c -0.733,0 -1.328,0.6 -1.328,1.33 0,0.74 0.595,1.33 1.328,1.33 h 1.176 c -0.301,3.56 -1.808,7.04 -4.526,9.75 -2.717,2.72 -6.193,4.23 -9.752,4.53 v -1.18 c 0,-0.73 -0.595,-1.32 -1.328,-1.32 -0.733,0 -1.328,0.59 -1.328,1.32 v 1.18 c -3.559,-0.3 -7.035,-1.81 -9.753,-4.53 -2.67,-2.67 -4.217,-6.14 -4.527,-9.75 h 1.177 c 0.733,0 1.328,-0.59 1.328,-1.33 0,-0.73 -0.595,-1.33 -1.328,-1.33 h -1.18 c 0.153,-1.83 0.63,-3.66 1.451,-5.39 0.315,-0.66 0.033,-1.45 -0.63,-1.77 -0.662,-0.31 -1.455,-0.03 -1.769,0.63 -0.993,2.09 -1.556,4.31 -1.714,6.53 h -1.558 c -0.733,0 -1.328,0.6 -1.328,1.33 0,0.74 0.595,1.33 1.328,1.33 h 1.561 c 0.317,4.3 2.133,8.45 5.312,11.63 3.146,3.15 7.235,5.01 11.63,5.32 v 1.55 c 0,0.74 0.595,1.33 1.328,1.33 0.733,0 1.328,-0.59 1.328,-1.33 v -1.55 c 4.395,-0.31 8.484,-2.17 11.631,-5.32 3.146,-3.14 5.007,-7.23 5.32,-11.63 h 1.552 c 0.734,0 1.328,-0.59 1.328,-1.33 0,-0.73 -0.594,-1.33 -1.328,-1.33 h -1.552 c -0.281,-3.95 -1.815,-7.65 -4.409,-10.65 l 1.432,-1.43 h 11.281 c 0.352,0 0.691,-0.14 0.94,-0.39 l 8.849,-8.87 c 1.2,-1.2 1.543,-2.93 0.893,-4.5 z m -37.265,34.88 c -4.247,0 -7.703,-3.46 -7.703,-7.71 0,-4.24 3.456,-7.7 7.703,-7.7 1.648,0 3.176,0.52 4.43,1.41 l -2.353,2.35 c -0.518,0.52 -0.518,1.36 0,1.88 0.26,0.26 0.599,0.39 0.939,0.39 0.34,0 0.68,-0.13 0.939,-0.39 l 2.35,-2.35 c 0.879,1.25 1.397,2.77 1.397,4.41 0,4.25 -3.455,7.71 -7.702,7.71 z m 16.08,-33.73 8.481,-8.46 c 0.647,-0.64 1.394,-0.4 1.608,-0.32 0.213,0.09 0.91,0.45 0.912,1.37 l 0.012,4.47 -7.262,7.27 -3.751,3.75 z m 18.411,1.47 -8.46,8.49 h -8.073 l 3.751,-3.76 7.262,-7.26 4.479,0.01 c 0.913,0.01 1.273,0.7 1.361,0.92 0.088,0.21 0.326,0.96 -0.32,1.6 z"
           id="path338"
           inkscape:connector-curvature="0"
           style="fill:#caac7d" />
        <path
           d="m 481.185,2180.82 c -0.246,-0.25 -0.589,-0.39 -0.939,-0.39 -0.349,0 -0.692,0.14 -0.939,0.39 -0.247,0.25 -0.389,0.59 -0.389,0.94 0,0.35 0.142,0.69 0.389,0.94 0.247,0.25 0.59,0.39 0.939,0.39 0.351,0 0.692,-0.14 0.939,-0.39 0.248,-0.25 0.389,-0.59 0.389,-0.94 0,-0.35 -0.141,-0.69 -0.389,-0.94 z"
           id="path340"
           inkscape:connector-curvature="0"
           style="fill:#caac7d" />
      </g>
    </g>
  </g>
</svg>
