<?xml version="1.0" encoding="UTF-8" standalone="no"?>
<!-- Created with Inkscape (http://www.inkscape.org/) -->

<svg
   xmlns:dc="http://purl.org/dc/elements/1.1/"
   xmlns:cc="http://creativecommons.org/ns#"
   xmlns:rdf="http://www.w3.org/1999/02/22-rdf-syntax-ns#"
   xmlns:svg="http://www.w3.org/2000/svg"
   xmlns="http://www.w3.org/2000/svg"
   xmlns:sodipodi="http://sodipodi.sourceforge.net/DTD/sodipodi-0.dtd"
   xmlns:inkscape="http://www.inkscape.org/namespaces/inkscape"
   width="31.75mm"
   height="31.75mm"
   viewBox="0 0 31.75 31.75"
   version="1.1"
   id="svg8704"
   inkscape:version="0.92.1 r15371"
   sodipodi:docname="case_1_ценообразование.svg">
  <defs
     id="defs8698" />
  <sodipodi:namedview
     id="base"
     pagecolor="#ffffff"
     bordercolor="#666666"
     borderopacity="1.0"
     inkscape:pageopacity="0.0"
     inkscape:pageshadow="2"
     inkscape:zoom="0.35"
     inkscape:cx="1922.857"
     inkscape:cy="-1020"
     inkscape:document-units="mm"
     inkscape:current-layer="layer1"
     showgrid="false"
     inkscape:window-width="1920"
     inkscape:window-height="1058"
     inkscape:window-x="1912"
     inkscape:window-y="2"
     inkscape:window-maximized="1" />
  <metadata
     id="metadata8701">
    <rdf:RDF>
      <cc:Work
         rdf:about="">
        <dc:format>image/svg+xml</dc:format>
        <dc:type
           rdf:resource="http://purl.org/dc/dcmitype/StillImage" />
        <dc:title></dc:title>
      </cc:Work>
    </rdf:RDF>
  </metadata>
  <g
     inkscape:label="Layer 1"
     inkscape:groupmode="layer"
     id="layer1"
     transform="translate(538.99402,152.79167)">
    <circle
       style="fill:#ffffff;stroke-width:0.26458332"
       id="circle148"
       r="15.875"
       cy="-136.91667"
       cx="-523.11902" />
    <path
       style="fill:#caac7d;stroke-width:0.26458332"
       inkscape:connector-curvature="0"
       id="path150"
       d="m -519.21909,-135.33446 h -0.38629 c 0.27781,-0.33602 0.4445,-0.76464 0.4445,-1.23031 v -0.9181 c 0,-0.1958 -0.15875,-0.3519 -0.3519,-0.3519 h -2.02406 c -0.46831,0 -0.89694,0.16669 -1.23031,0.44185 v -1.46314 c 1.78594,-0.17727 3.18558,-1.68804 3.18558,-3.51896 0,-1.94998 -1.5875,-3.53748 -3.53748,-3.53748 -1.94998,0 -3.53748,1.5875 -3.53748,3.53748 0,1.83092 1.39965,3.34169 3.18559,3.51896 v 0.83608 c -0.33338,-0.27781 -0.762,-0.4445 -1.23032,-0.4445 h -1.20914 c -0.19315,0 -0.3519,0.15875 -0.3519,0.3519 v 0.35454 c 0,1.06627 0.86784,1.93146 1.93411,1.93146 h 0.85725 v 0.49212 h -3.54807 c -0.54504,0 -0.98954,0.44186 -0.98954,0.9869 v 0.037 c 0,0.48418 0.34925,0.88635 0.80963,0.97102 v 1.85473 c 0,1.14035 0.84666,2.08491 1.94468,2.23837 -0.13493,0.21696 -0.21166,0.47361 -0.21166,0.74613 v 0.22754 c 0,0.19579 0.1561,0.35189 0.35189,0.35189 h 3.98992 c 0.19579,0 0.3519,-0.1561 0.3519,-0.35189 v -0.22754 c 0,-0.27252 -0.0767,-0.52917 -0.21167,-0.74613 1.09802,-0.15346 1.94469,-1.09802 1.94469,-2.23837 v -1.85473 c 0.46037,-0.0847 0.80962,-0.48683 0.80962,-0.97102 v -0.037 c 0,-0.54504 -0.4445,-0.9869 -0.98954,-0.9869 z m -2.31775,-1.79916 h 1.67217 v 0.56885 c 0,0.67733 -0.55034,1.23031 -1.23032,1.23031 h -1.67216 v -0.56885 c 0,-0.67734 0.55033,-1.23031 1.23031,-1.23031 z m -4.4159,-5.2414 c 0,-1.56369 1.27,-2.83369 2.83369,-2.83369 1.56369,0 2.83369,1.27 2.83369,2.83369 0,1.56104 -1.27,2.83369 -2.83369,2.83369 -1.56369,0 -2.83369,-1.27265 -2.83369,-2.83369 z m 1.62455,5.84729 c -0.67998,0 -1.23032,-0.55298 -1.23032,-1.23031 v -0.003 h 0.85725 c 0.67998,0 1.23032,0.55033 1.23032,1.23031 v 0.003 z m -0.42598,7.90311 c 0.0556,-0.32015 0.32279,-0.56886 0.65352,-0.59796 h 1.96321 c 0.33073,0.0291 0.59795,0.27781 0.65352,0.59796 z m 5.82083,-5.6859 c 0,0.15875 -0.127,0.28575 -0.28575,0.28575 h -4.51379 c -0.19315,0 -0.3519,0.15875 -0.3519,0.3519 0,0.19314 0.15875,0.35189 0.3519,0.35189 h 3.99256 v 1.83621 c 0,0.8599 -0.6985,1.5584 -1.55839,1.5584 h -3.64067 c -0.8599,0 -1.5584,-0.6985 -1.5584,-1.5584 v -2.1881 c 0,-0.19315 -0.1561,-0.3519 -0.34925,-0.3519 h -0.17198 c -0.15875,0 -0.28575,-0.127 -0.28575,-0.28575 v -0.037 c 0,-0.1561 0.127,-0.28575 0.28575,-0.28575 h 7.79992 c 0.15875,0 0.28575,0.12965 0.28575,0.28575 z" />
    <path
       style="fill:#caac7d;stroke-width:0.26458332"
       inkscape:connector-curvature="0"
       id="path152"
       d="m -522.88621,-142.73485 h -0.17463 -0.11377 -0.17727 c -0.11906,0 -0.21696,-0.0979 -0.21696,-0.21696 v -0.26988 c 0,-0.11906 0.0979,-0.21696 0.21696,-0.21696 h 0.51594 c 0.0926,0 0.16668,0.0741 0.16668,0.16669 0,0.19315 0.15611,0.3519 0.3519,0.3519 0.19315,0 0.34925,-0.15875 0.34925,-0.3519 0,-0.45508 -0.3519,-0.83079 -0.79904,-0.86783 v -0.21167 c 0,-0.19579 -0.15875,-0.35189 -0.3519,-0.35189 -0.19314,0 -0.35189,0.1561 -0.35189,0.35189 v 0.21696 c -0.4498,0.0582 -0.79905,0.4445 -0.79905,0.91281 v 0.26988 c 0,0.508 0.41276,0.92075 0.91811,0.92075 h 0.17727 0.11377 0.17463 c 0.11906,0 0.21695,0.0979 0.21695,0.21696 v 0.26987 c 0,0.11906 -0.0979,0.21696 -0.21695,0.21696 h -0.51594 c -0.09,0 -0.16669,-0.0741 -0.16669,-0.16669 0,-0.19314 -0.1561,-0.35189 -0.3519,-0.35189 -0.19314,0 -0.34925,0.15875 -0.34925,0.35189 0,0.45509 0.3519,0.83079 0.79905,0.86519 v 0.21431 c 0,0.19315 0.15875,0.3519 0.35189,0.3519 0.19315,0 0.3519,-0.15875 0.3519,-0.3519 v -0.21696 c 0.44979,-0.0609 0.79904,-0.44714 0.79904,-0.91281 v -0.26987 c 0,-0.508 -0.41275,-0.92075 -0.9181,-0.92075 z" />
    <path
       style="fill:#caac7d;stroke-width:0.26458332"
       inkscape:connector-curvature="0"
       id="path154"
       d="m -525.22249,-133.32098 c 0.1958,0 0.3519,-0.15875 0.3519,-0.35189 0,-0.19315 -0.1561,-0.3519 -0.3519,-0.3519 -0.19314,0 -0.34925,0.15875 -0.34925,0.3519 0,0.19314 0.15611,0.35189 0.34925,0.35189 z" />
  </g>
</svg>
