<?xml version="1.0" encoding="UTF-8" standalone="no"?>
<!-- Created with Inkscape (http://www.inkscape.org/) -->

<svg
   xmlns:dc="http://purl.org/dc/elements/1.1/"
   xmlns:cc="http://creativecommons.org/ns#"
   xmlns:rdf="http://www.w3.org/1999/02/22-rdf-syntax-ns#"
   xmlns:svg="http://www.w3.org/2000/svg"
   xmlns="http://www.w3.org/2000/svg"
   xmlns:sodipodi="http://sodipodi.sourceforge.net/DTD/sodipodi-0.dtd"
   xmlns:inkscape="http://www.inkscape.org/namespaces/inkscape"
   width="31.75mm"
   height="31.75mm"
   viewBox="0 0 31.75 31.75"
   version="1.1"
   id="svg7115"
   inkscape:version="0.92.1 r15371"
   sodipodi:docname="case_1_отчетность.svg">
  <defs
     id="defs7109" />
  <sodipodi:namedview
     id="base"
     pagecolor="#ffffff"
     bordercolor="#666666"
     borderopacity="1.0"
     inkscape:pageopacity="0.0"
     inkscape:pageshadow="2"
     inkscape:zoom="0.35"
     inkscape:cx="1948.5714"
     inkscape:cy="-1011.4286"
     inkscape:document-units="mm"
     inkscape:current-layer="layer1"
     showgrid="false"
     inkscape:window-width="1920"
     inkscape:window-height="1058"
     inkscape:window-x="1912"
     inkscape:window-y="2"
     inkscape:window-maximized="1" />
  <metadata
     id="metadata7112">
    <rdf:RDF>
      <cc:Work
         rdf:about="">
        <dc:format>image/svg+xml</dc:format>
        <dc:type
           rdf:resource="http://purl.org/dc/dcmitype/StillImage" />
        <dc:title></dc:title>
      </cc:Work>
    </rdf:RDF>
  </metadata>
  <g
     inkscape:label="Layer 1"
     inkscape:groupmode="layer"
     id="layer1"
     transform="translate(545.79761,150.52381)">
    <g
       transform="matrix(0.26458333,0,0,0.26458333,-867.07871,-752.44365)"
       id="g7089">
      <circle
         cx="1274.2908"
         cy="2334.9727"
         r="60"
         id="circle366"
         style="fill:#ffffff" />
      <path
         d="m 1307.9008,2313.4427 -12.09,-12.08 c -0.24,-0.25 -0.58,-0.39 -0.93,-0.39 h -39.45 c -2.2,0 -3.98,1.79 -3.98,3.98 v 2.54 c -6.53,2.56 -11.16,8.91 -11.16,16.34 0,0.73 0.59,1.32 1.33,1.32 h 16.21 c 0.74,0 1.33,-0.59 1.33,-1.32 v -16.22 c 0,-0.73 -0.59,-1.33 -1.33,-1.33 -1.28,0 -2.52,0.14 -3.73,0.4 v -1.73 c 0,-0.73 0.6,-1.32 1.33,-1.32 h 38.12 v 8.1 c 0,2.19 1.79,3.98 3.98,3.98 h 8.1 v 49.28 c 0,0.73 -0.59,1.32 -1.32,1.32 h -48.88 c -0.73,0 -1.33,-0.59 -1.33,-1.32 v -11.38 c 0,-0.74 -0.59,-1.33 -1.33,-1.33 -0.73,0 -1.32,0.59 -1.32,1.33 v 11.38 c 0,2.19 1.78,3.98 3.98,3.98 h 48.88 c 2.19,0 3.98,-1.79 3.98,-3.98 v -50.61 c 0,-0.35 -0.14,-0.69 -0.39,-0.94 z m -51.39,-4.44 v 13.5 h -13.51 c 0.64,-7.15 6.35,-12.87 13.51,-13.5 z m 41.02,4.06 c -0.73,0 -1.33,-0.6 -1.33,-1.33 v -6.23 l 7.56,7.56 z"
         id="path368"
         inkscape:connector-curvature="0"
         style="fill:#caac7d" />
      <path
         d="m 1253.7108,2347.8427 c -0.24,-0.24 -0.59,-0.39 -0.94,-0.39 -0.34,0 -0.69,0.15 -0.93,0.39 -0.25,0.25 -0.39,0.59 -0.39,0.94 0,0.35 0.14,0.69 0.39,0.94 0.24,0.25 0.59,0.39 0.93,0.39 0.35,0 0.7,-0.14 0.94,-0.39 0.25,-0.25 0.39,-0.59 0.39,-0.94 0,-0.35 -0.14,-0.69 -0.39,-0.94 z"
         id="path370"
         inkscape:connector-curvature="0"
         style="fill:#caac7d" />
      <path
         d="m 1262.5908,2311.0427 c -0.73,0 -1.33,0.59 -1.33,1.33 v 14.88 h -14.88 c -0.74,0 -1.33,0.6 -1.33,1.33 0,9.68 7.87,17.55 17.54,17.55 9.67,0 17.54,-7.87 17.54,-17.55 0,-9.67 -7.87,-17.54 -17.54,-17.54 z m 1.33,2.71 c 3.11,0.28 5.94,1.52 8.21,3.41 l -8.21,8.22 z m -1.33,29.72 c -7.76,0 -14.15,-5.97 -14.83,-13.56 h 14.83 c 0.37,0 0.7,-0.15 0.94,-0.39 0,0 0,0 0,0 l 10.48,-10.48 c 2.16,2.59 3.47,5.92 3.47,9.54 0,8.21 -6.68,14.89 -14.89,14.89 z"
         id="path372"
         inkscape:connector-curvature="0"
         style="fill:#caac7d" />
      <path
         d="m 1298.4708,2342.8927 c -2.2,0 -3.98,1.78 -3.98,3.98 0,0.55 0.11,1.08 0.31,1.55 l -7.65,7.66 c -0.53,-0.26 -1.12,-0.41 -1.74,-0.41 -0.61,0 -1.18,0.14 -1.7,0.39 l -5.08,-5.08 c 0.18,-0.45 0.27,-0.94 0.27,-1.45 0,-2.2 -1.78,-3.99 -3.98,-3.99 -2.2,0 -3.99,1.79 -3.99,3.99 0,0.59 0.14,1.16 0.37,1.66 l -4.87,4.88 c -0.52,-0.25 -1.1,-0.39 -1.72,-0.39 -2.19,0 -3.98,1.79 -3.98,3.98 0,2.2 1.79,3.99 3.98,3.99 2.2,0 3.99,-1.79 3.99,-3.99 0,-0.61 -0.14,-1.19 -0.39,-1.72 l 4.84,-4.84 c 0.54,0.26 1.14,0.41 1.77,0.41 0.71,0 1.38,-0.19 1.97,-0.52 l 4.93,4.94 c -0.25,0.52 -0.39,1.11 -0.39,1.73 0,2.2 1.78,3.98 3.98,3.98 2.2,0 3.99,-1.78 3.99,-3.98 0,-0.61 -0.14,-1.18 -0.38,-1.69 l 7.58,-7.58 c 0.56,0.29 1.19,0.47 1.87,0.47 2.2,0 3.99,-1.79 3.99,-3.99 0,-2.2 -1.79,-3.98 -3.99,-3.98 z m -33.76,18.1 c -0.73,0 -1.32,-0.59 -1.32,-1.33 0,-0.73 0.59,-1.32 1.32,-1.32 0.36,0 0.68,0.14 0.92,0.37 0.01,0 0.01,0.01 0.02,0.02 0.01,0 0.01,0.01 0.02,0.01 0.23,0.24 0.37,0.57 0.37,0.92 0,0.74 -0.59,1.33 -1.33,1.33 z m 10.21,-10.14 c -0.73,0 -1.33,-0.59 -1.33,-1.32 0,-0.74 0.6,-1.33 1.33,-1.33 0.73,0 1.33,0.59 1.33,1.33 0,0.73 -0.6,1.32 -1.33,1.32 z m 10.49,10.14 c -0.73,0 -1.33,-0.6 -1.33,-1.33 0,-0.73 0.6,-1.33 1.33,-1.33 0.73,0 1.33,0.6 1.33,1.33 0,0.73 -0.6,1.33 -1.33,1.33 z m 13.06,-12.79 c -0.73,0 -1.33,-0.6 -1.33,-1.33 0,-0.73 0.6,-1.33 1.33,-1.33 0.73,0 1.33,0.6 1.33,1.33 0,0.73 -0.6,1.33 -1.33,1.33 z"
         id="path374"
         inkscape:connector-curvature="0"
         style="fill:#caac7d" />
      <path
         d="m 1291.8308,2332.1827 h -7.01 c -0.73,0 -1.32,0.6 -1.32,1.33 0,0.73 0.59,1.33 1.32,1.33 h 7.01 c 0.74,0 1.33,-0.6 1.33,-1.33 0,-0.73 -0.59,-1.33 -1.33,-1.33 z"
         id="path376"
         inkscape:connector-curvature="0"
         style="fill:#caac7d" />
      <path
         d="m 1298.8208,2332.5727 c -0.25,-0.25 -0.59,-0.39 -0.94,-0.39 -0.35,0 -0.69,0.14 -0.94,0.39 -0.25,0.25 -0.39,0.59 -0.39,0.94 0,0.35 0.14,0.69 0.39,0.94 0.25,0.24 0.59,0.39 0.94,0.39 0.35,0 0.69,-0.14 0.94,-0.39 0.25,-0.25 0.39,-0.59 0.39,-0.94 0,-0.35 -0.14,-0.69 -0.39,-0.94 z"
         id="path378"
         inkscape:connector-curvature="0"
         style="fill:#caac7d" />
      <path
         d="m 1301.0508,2319.4327 h -16.23 c -0.73,0 -1.32,0.6 -1.32,1.33 0,0.73 0.59,1.33 1.32,1.33 h 16.23 c 0.73,0 1.33,-0.6 1.33,-1.33 0,-0.73 -0.6,-1.33 -1.33,-1.33 z"
         id="path380"
         inkscape:connector-curvature="0"
         style="fill:#caac7d" />
      <path
         d="m 1301.0508,2325.8127 h -16.23 c -0.73,0 -1.32,0.59 -1.32,1.32 0,0.74 0.59,1.33 1.32,1.33 h 16.23 c 0.73,0 1.33,-0.59 1.33,-1.33 0,-0.73 -0.6,-1.32 -1.33,-1.32 z"
         id="path382"
         inkscape:connector-curvature="0"
         style="fill:#caac7d" />
    </g>
  </g>
</svg>
