<?xml version="1.0" encoding="UTF-8" standalone="no"?>
<!-- Created with Inkscape (http://www.inkscape.org/) -->

<svg
   xmlns:dc="http://purl.org/dc/elements/1.1/"
   xmlns:cc="http://creativecommons.org/ns#"
   xmlns:rdf="http://www.w3.org/1999/02/22-rdf-syntax-ns#"
   xmlns:svg="http://www.w3.org/2000/svg"
   xmlns="http://www.w3.org/2000/svg"
   xmlns:sodipodi="http://sodipodi.sourceforge.net/DTD/sodipodi-0.dtd"
   xmlns:inkscape="http://www.inkscape.org/namespaces/inkscape"
   width="31.75mm"
   height="31.75mm"
   viewBox="0 0 31.75 31.75"
   version="1.1"
   id="svg5907"
   inkscape:version="0.92.1 r15371"
   sodipodi:docname="case_1_персонал.svg">
  <defs
     id="defs5901">
    <clipPath
       id="clip2">
      <rect
         style="fill:#ffffff"
         y="0"
         x="0"
         width="68"
         height="68"
         transform="translate(1050,1889)"
         id="rect573" />
    </clipPath>
  </defs>
  <sodipodi:namedview
     id="base"
     pagecolor="#ffffff"
     bordercolor="#666666"
     borderopacity="1.0"
     inkscape:pageopacity="0.0"
     inkscape:pageshadow="2"
     inkscape:zoom="0.35"
     inkscape:cx="1928.5714"
     inkscape:cy="-1022.8571"
     inkscape:document-units="mm"
     inkscape:current-layer="layer1"
     showgrid="false"
     inkscape:window-width="1920"
     inkscape:window-height="1058"
     inkscape:window-x="1912"
     inkscape:window-y="2"
     inkscape:window-maximized="1" />
  <metadata
     id="metadata5904">
    <rdf:RDF>
      <cc:Work
         rdf:about="">
        <dc:format>image/svg+xml</dc:format>
        <dc:type
           rdf:resource="http://purl.org/dc/dcmitype/StillImage" />
        <dc:title></dc:title>
      </cc:Work>
    </rdf:RDF>
  </metadata>
  <g
     inkscape:label="Layer 1"
     inkscape:groupmode="layer"
     id="layer1"
     transform="translate(540.50595,153.54762)">
    <g
       transform="matrix(0.26458333,0,0,0.26458333,-861.78705,-687.99871)"
       id="g5878">
      <circle
         cx="1274.2908"
         cy="2079.9727"
         r="60"
         id="circle290"
         style="fill:#ffffff" />
      <g
         transform="translate(190.29078,156.97272)"
         clip-path="url(#clip2)"
         id="g308">
        <path
           d="m 1066.19,1904.24 c 0.68,-0.92 1.08,-2.06 1.08,-3.29 v -1.06 c 0,-3.07 -2.51,-5.58 -5.58,-5.58 -3.08,0 -5.58,2.51 -5.58,5.58 v 1.06 c 0,1.23 0.4,2.37 1.07,3.29 -4.13,1.16 -7.18,4.96 -7.18,9.46 v 10.1 c 0,2.19 1.79,3.98 3.98,3.98 h 1.08 v 20.74 c 0,0.73 0.59,1.33 1.32,1.33 h 5.32 5.31 c 0.73,0 1.33,-0.6 1.33,-1.33 v -5.98 c 0,-0.74 -0.6,-1.33 -1.33,-1.33 -0.74,0 -1.33,0.59 -1.33,1.33 v 4.65 h -2.66 v -17.95 -1.86 c 0,-0.73 -0.59,-1.33 -1.32,-1.33 -0.74,0 -1.33,0.6 -1.33,1.33 v 1.86 17.95 h -2.66 v -26 h 7.97 v 11.07 c 0,0.74 0.59,1.33 1.33,1.33 0.73,0 1.33,-0.59 1.33,-1.33 v -4.48 h 1.05 c 2.2,0 3.98,-1.79 3.98,-3.98 v -10.1 c 0,-4.5 -3.04,-8.3 -7.18,-9.46 z m -7.42,-4.35 c 0,-1.61 1.31,-2.92 2.92,-2.92 1.61,0 2.92,1.31 2.92,2.92 v 1.06 c 0,1.61 -1.31,2.93 -2.92,2.93 -1.61,0 -2.92,-1.32 -2.92,-2.93 z m 11.95,23.91 c 0,0.73 -0.6,1.32 -1.33,1.32 h -1.05 v -10.89 c 0,-0.73 -0.6,-1.32 -1.33,-1.32 -0.74,0 -1.33,0.59 -1.33,1.32 v 4.3 h -7.97 v -4.3 c 0,-0.73 -0.59,-1.32 -1.33,-1.32 -0.73,0 -1.32,0.59 -1.32,1.32 v 10.89 h -1.08 c -0.73,0 -1.32,-0.59 -1.32,-1.32 v -10.1 c 0,-3.95 3.21,-7.17 7.17,-7.17 h 3.72 c 3.95,0 7.17,3.22 7.17,7.17 z"
           id="path292"
           inkscape:connector-curvature="0"
           style="fill:#caac7d" />
        <path
           d="m 1067.95,1936.63 c -0.25,-0.25 -0.59,-0.39 -0.94,-0.39 -0.35,0 -0.69,0.14 -0.94,0.39 -0.25,0.24 -0.39,0.58 -0.39,0.94 0,0.34 0.14,0.69 0.39,0.93 0.25,0.25 0.59,0.39 0.94,0.39 0.35,0 0.69,-0.14 0.94,-0.39 0.24,-0.24 0.39,-0.59 0.39,-0.93 0,-0.36 -0.15,-0.7 -0.39,-0.94 z"
           id="path294"
           inkscape:connector-curvature="0"
           style="fill:#caac7d" />
        <path
           d="m 1109.23,1889 c -4.83,0 -8.76,3.93 -8.76,8.77 0,4.83 3.93,8.76 8.76,8.76 4.84,0 8.77,-3.93 8.77,-8.76 0,-4.84 -3.93,-8.77 -8.77,-8.77 z m 0,14.88 c -3.36,0 -6.1,-2.75 -6.1,-6.11 0,-3.37 2.74,-6.11 6.1,-6.11 3.37,0 6.11,2.74 6.11,6.11 0,3.36 -2.74,6.11 -6.11,6.11 z"
           id="path296"
           inkscape:connector-curvature="0"
           style="fill:#caac7d" />
        <path
           d="m 1109.23,1914.23 c -4.83,0 -8.76,3.94 -8.76,8.77 0,4.83 3.93,8.77 8.76,8.77 4.84,0 8.77,-3.94 8.77,-8.77 0,-4.83 -3.93,-8.77 -8.77,-8.77 z m 0,14.88 c -3.36,0 -6.1,-2.74 -6.1,-6.11 0,-3.37 2.74,-6.11 6.1,-6.11 3.37,0 6.11,2.74 6.11,6.11 0,3.37 -2.74,6.11 -6.11,6.11 z"
           id="path298"
           inkscape:connector-curvature="0"
           style="fill:#caac7d" />
        <path
           d="m 1109.23,1939.47 c -4.83,0 -8.76,3.93 -8.76,8.76 0,4.84 3.93,8.77 8.76,8.77 4.84,0 8.77,-3.93 8.77,-8.77 0,-4.83 -3.93,-8.76 -8.77,-8.76 z m 0,14.87 c -3.36,0 -6.1,-2.74 -6.1,-6.11 0,-3.36 2.74,-6.11 6.1,-6.11 3.37,0 6.11,2.75 6.11,6.11 0,3.37 -2.74,6.11 -6.11,6.11 z"
           id="path300"
           inkscape:connector-curvature="0"
           style="fill:#caac7d" />
        <path
           d="m 1084.94,1911.67 c -0.25,-0.25 -0.59,-0.39 -0.94,-0.39 -0.35,0 -0.69,0.14 -0.94,0.39 -0.25,0.25 -0.39,0.59 -0.39,0.94 0,0.35 0.14,0.69 0.39,0.94 0.25,0.24 0.59,0.39 0.94,0.39 0.35,0 0.69,-0.15 0.94,-0.39 0.25,-0.25 0.39,-0.59 0.39,-0.94 0,-0.35 -0.14,-0.69 -0.39,-0.94 z"
           id="path302"
           inkscape:connector-curvature="0"
           style="fill:#caac7d" />
        <path
           d="m 1095.27,1944.18 c -0.52,-0.52 -1.36,-0.52 -1.88,0 -0.46,0.47 -0.51,1.19 -0.13,1.71 h -7.93 v -21.53 h 7.92 c -0.37,0.52 -0.32,1.24 0.15,1.7 0.25,0.26 0.59,0.39 0.93,0.39 0.34,0 0.68,-0.13 0.94,-0.39 l 2.11,-2.1 c 0.25,-0.25 0.39,-0.59 0.39,-0.94 0,-0.36 -0.14,-0.69 -0.39,-0.94 l -2.11,-2.11 c -0.52,-0.52 -1.36,-0.52 -1.87,0 -0.48,0.48 -0.52,1.22 -0.13,1.74 h -7.94 v -4.12 c 0,-0.73 -0.6,-1.33 -1.33,-1.33 -0.73,0 -1.33,0.6 -1.33,1.33 v 4.12 h -3.85 c -0.73,0 -1.33,0.59 -1.33,1.32 0,0.74 0.6,1.33 1.33,1.33 h 3.85 v 21.53 c 0,1.47 1.19,2.66 2.66,2.66 h 7.93 c -0.38,0.52 -0.33,1.25 0.13,1.72 0.26,0.25 0.6,0.38 0.94,0.38 0.34,0 0.68,-0.13 0.94,-0.38 l 2.11,-2.11 c 0.25,-0.25 0.39,-0.59 0.39,-0.94 0,-0.35 -0.14,-0.69 -0.39,-0.94 z"
           id="path304"
           inkscape:connector-curvature="0"
           style="fill:#caac7d" />
        <path
           d="m 1097.38,1897.87 -2.11,-2.1 c -0.52,-0.52 -1.36,-0.52 -1.88,0 -0.47,0.48 -0.51,1.23 -0.11,1.75 h -7.95 c -1.47,0 -2.66,1.19 -2.66,2.65 v 7.91 c 0,0.74 0.6,1.33 1.33,1.33 0.73,0 1.33,-0.59 1.33,-1.33 v -7.91 h 7.9 c -0.35,0.52 -0.29,1.23 0.16,1.69 0.26,0.25 0.6,0.38 0.94,0.38 0.34,0 0.68,-0.13 0.94,-0.38 l 2.11,-2.11 c 0.25,-0.25 0.39,-0.59 0.39,-0.94 0,-0.35 -0.14,-0.69 -0.39,-0.94 z"
           id="path306"
           inkscape:connector-curvature="0"
           style="fill:#caac7d" />
      </g>
    </g>
  </g>
</svg>
