<?xml version="1.0" encoding="UTF-8" standalone="no"?>
<!-- Created with Inkscape (http://www.inkscape.org/) -->

<svg
   xmlns:dc="http://purl.org/dc/elements/1.1/"
   xmlns:cc="http://creativecommons.org/ns#"
   xmlns:rdf="http://www.w3.org/1999/02/22-rdf-syntax-ns#"
   xmlns:svg="http://www.w3.org/2000/svg"
   xmlns="http://www.w3.org/2000/svg"
   xmlns:sodipodi="http://sodipodi.sourceforge.net/DTD/sodipodi-0.dtd"
   xmlns:inkscape="http://www.inkscape.org/namespaces/inkscape"
   width="31.75mm"
   height="31.75mm"
   viewBox="0 0 31.75 31.75"
   version="1.1"
   id="svg8117"
   inkscape:version="0.92.1 r15371"
   sodipodi:docname="case_1_договора.svg">
  <defs
     id="defs8111" />
  <sodipodi:namedview
     id="base"
     pagecolor="#ffffff"
     bordercolor="#666666"
     borderopacity="1.0"
     inkscape:pageopacity="0.0"
     inkscape:pageshadow="2"
     inkscape:zoom="0.35"
     inkscape:cx="1962.8572"
     inkscape:cy="-1031.4286"
     inkscape:document-units="mm"
     inkscape:current-layer="layer1"
     showgrid="false"
     inkscape:window-width="1920"
     inkscape:window-height="1058"
     inkscape:window-x="1912"
     inkscape:window-y="2"
     inkscape:window-maximized="1" />
  <metadata
     id="metadata8114">
    <rdf:RDF>
      <cc:Work
         rdf:about="">
        <dc:format>image/svg+xml</dc:format>
        <dc:type
           rdf:resource="http://purl.org/dc/dcmitype/StillImage" />
        <dc:title></dc:title>
      </cc:Work>
    </rdf:RDF>
  </metadata>
  <g
     inkscape:label="Layer 1"
     inkscape:groupmode="layer"
     id="layer1"
     transform="translate(549.57739,155.81548)">
    <circle
       style="fill:#ffffff;stroke-width:0.26458332"
       id="circle106"
       r="15.875"
       cy="-139.94048"
       cx="-533.70239" />
    <path
       style="fill:#caac7d;stroke-width:0.26458332"
       inkscape:connector-curvature="0"
       id="path108"
       d="m -529.10789,-148.93631 c -0.0201,0 -0.0399,0 -0.0598,0 h -11.48186 c -1.02473,0 -1.85922,0.83079 -1.86716,1.85208 0,0.003 0,0.005 0,0.008 v 14.81402 c 0,0.72761 0.59055,1.31763 1.3163,1.31763 h 9.55913 c 0.72602,0 1.31657,-0.59002 1.31657,-1.31763 v -10.98021 h 2.16191 c 0.47943,0 0.86969,-0.38893 0.86969,-0.86783 v -2.92629 c 0,-1.02129 -0.81413,-1.87061 -1.81478,-1.89971 z m -1.91955,1.85208 c 0,0.003 0,0.005 0,0.008 v 14.81402 c 0,0.33867 -0.27543,0.61384 -0.61357,0.61384 h -9.5594 c -0.33814,0 -0.61357,-0.27517 -0.61357,-0.61384 v -14.80608 c 0,-0.64294 0.52256,-1.16417 1.16443,-1.16417 h 10.02904 c -0.26088,0.32544 -0.40376,0.72496 -0.40693,1.14829 z m 3.03159,2.97392 c 0,0.09 -0.0749,0.16669 -0.16695,0.16669 h -2.16191 v -3.12473 c 0,-0.3175 0.12515,-0.61383 0.35243,-0.83608 0.21881,-0.21167 0.50482,-0.32809 0.80909,-0.32809 h 0.003 c 0.0114,0 0.022,0 0.0331,0 0.62389,0.0159 1.13136,0.55298 1.13136,1.19592 z" />
    <path
       style="fill:#caac7d;stroke-width:0.26458332"
       inkscape:connector-curvature="0"
       id="path110"
       d="m -537.85925,-146.87785 c -1.53194,0 -2.77839,1.24619 -2.77839,2.77812 0,1.53194 1.24645,2.77813 2.77839,2.77813 1.5322,0 2.77839,-1.24619 2.77839,-2.77813 0,-1.53193 -1.24619,-2.77812 -2.77839,-2.77812 z m 0,4.8551 c -1.14432,0 -2.07539,-0.93133 -2.07539,-2.07698 0,-1.143 0.93107,-2.07433 2.07539,-2.07433 1.14459,0 2.07566,0.93133 2.07566,2.07433 0,1.14565 -0.93107,2.07698 -2.07566,2.07698 z" />
    <path
       style="fill:#caac7d;stroke-width:0.26458332"
       inkscape:connector-curvature="0"
       id="path112"
       d="m -537.85925,-143.61025 c -0.26935,0 -0.48842,-0.2196 -0.48842,-0.48948 0,-0.26987 0.21907,-0.48683 0.48842,-0.48683 0.1942,0 0.35137,-0.15875 0.35137,-0.3519 0,-0.19579 -0.15717,-0.35189 -0.35137,-0.35189 -0.6567,0 -1.19115,0.53446 -1.19115,1.19062 0,0.65617 0.53445,1.19063 1.19115,1.19063 0.1942,0 0.35137,-0.15611 0.35137,-0.34925 0,-0.19579 -0.15717,-0.3519 -0.35137,-0.3519 z" />
    <path
       style="fill:#caac7d;stroke-width:0.26458332"
       inkscape:connector-curvature="0"
       id="path114"
       d="m -532.84063,-139.95371 h -7.44564 c -0.19394,0 -0.35137,0.15611 -0.35137,0.3519 0,0.19315 0.15743,0.3519 0.35137,0.3519 h 7.44564 c 0.1942,0 0.35136,-0.15875 0.35136,-0.3519 0,-0.19579 -0.15716,-0.3519 -0.35136,-0.3519 z" />
    <path
       style="fill:#caac7d;stroke-width:0.26458332"
       inkscape:connector-curvature="0"
       id="path116"
       d="m -532.84063,-138.4641 h -7.44564 c -0.19394,0 -0.35137,0.15875 -0.35137,0.35189 0,0.19315 0.15743,0.3519 0.35137,0.3519 h 7.44564 c 0.1942,0 0.35136,-0.15875 0.35136,-0.3519 0,-0.19314 -0.15716,-0.35189 -0.35136,-0.35189 z" />
    <path
       style="fill:#caac7d;stroke-width:0.26458332"
       inkscape:connector-curvature="0"
       id="path118"
       d="m -536.42071,-136.88983 h -3.86556 c -0.19394,0 -0.35137,0.1561 -0.35137,0.34925 0,0.19579 0.15743,0.3519 0.35137,0.3519 h 3.86556 c 0.19394,0 0.35137,-0.15611 0.35137,-0.3519 0,-0.19315 -0.15743,-0.34925 -0.35137,-0.34925 z" />
    <path
       style="fill:#caac7d;stroke-width:0.26458332"
       inkscape:connector-curvature="0"
       id="path120"
       d="m -525.87389,-136.07491 v -1.05569 l 0.59346,-1.16152 c 0.0508,-0.0979 0.0513,-0.21696 10e-4,-0.31486 l -1.5462,-3.09827 c -0.0595,-0.11906 -0.18124,-0.19314 -0.31433,-0.19314 -2.6e-4,0 -5.2e-4,0 -5.2e-4,0 -0.13335,0 -0.25506,0.0767 -0.31433,0.19579 l -1.54649,3.12208 c -0.0497,0.10054 -0.0484,0.21961 0.004,0.32015 l 0.5924,1.13241 v 1.05305 c -0.56329,0.12435 -0.9861,0.62706 -0.9861,1.22766 0,0.0106 7.9e-4,0.0238 0.002,0.0344 l 0.35348,3.55071 c 0.018,0.17992 0.16907,0.3175 0.34978,0.3175 h 3.09245 c 0.18071,0 0.33179,-0.13758 0.34978,-0.3175 l 0.35402,-3.55071 c 10e-4,-0.0106 0.002,-0.0238 0.002,-0.0344 0,-0.6006 -0.42281,-1.10331 -0.98584,-1.22766 z m -1.6174,-3.9714 v 1.46844 c 0,0.19579 0.15743,0.35189 0.35137,0.35189 0.1942,0 0.35163,-0.1561 0.35163,-0.35189 v -1.47902 l 0.80116,1.60337 -0.4535,0.889 h -1.40044 l -0.45058,-0.86519 z m 0.9144,3.18294 v 0.75935 h -1.12527 v -0.75935 z m 0.66543,5.21494 h -2.45639 l -0.32015,-3.21469 c 0.008,-0.29634 0.25321,-0.53711 0.55272,-0.53711 h 0.0818 1.82827 0.0815 c 0.29977,0 0.54451,0.24077 0.55271,0.53711 z" />
    <path
       style="fill:#caac7d;stroke-width:0.26458332"
       inkscape:connector-curvature="0"
       id="path122"
       d="m -536.35668,-133.39468 c -0.0931,-0.16934 -0.30692,-0.23019 -0.47704,-0.13759 -0.0767,0.0423 -0.17278,0.0318 -0.23866,-0.0265 -0.25003,-0.2196 -0.59981,-0.28575 -0.91255,-0.17198 l -0.59425,0.21696 c -0.0405,0.008 -0.082,-0.005 -0.11457,-0.0397 l -0.078,-0.0847 c -0.21934,-0.23812 -0.54345,-0.32543 -0.84587,-0.23018 l -0.694,0.21431 c -0.18521,0.0582 -0.28866,0.254 -0.23098,0.43921 0.0574,0.18521 0.25453,0.29104 0.43973,0.23284 l 0.69401,-0.21696 c 0.0426,-0.0132 0.087,0 0.1217,0.0397 l 0.078,0.082 c 0.21723,0.23548 0.53896,0.32543 0.839,0.23283 0.006,0 0.0124,-0.003 0.0185,-0.005 l 0.60642,-0.2196 c 0.072,-0.0265 0.15214,-0.0106 0.20955,0.0397 0.16987,0.14816 0.38524,0.22489 0.60219,0.22489 0.15002,0 0.30084,-0.037 0.43789,-0.11112 0.17013,-0.0953 0.2323,-0.30692 0.13891,-0.4789 z" />
    <path
       style="fill:#caac7d;stroke-width:0.26458332"
       inkscape:connector-curvature="0"
       id="path124"
       d="m -535.66294,-132.92902 c 0.1942,0 0.35136,-0.1561 0.35136,-0.34925 0,-0.19579 -0.15716,-0.35189 -0.35136,-0.35189 -0.19394,0 -0.35137,0.1561 -0.35137,0.35189 0,0.19315 0.15743,0.34925 0.35137,0.34925 z" />
  </g>
</svg>
