<?xml version="1.0" encoding="UTF-8" standalone="no"?>
<!-- Created with Inkscape (http://www.inkscape.org/) -->

<svg
   xmlns:dc="http://purl.org/dc/elements/1.1/"
   xmlns:cc="http://creativecommons.org/ns#"
   xmlns:rdf="http://www.w3.org/1999/02/22-rdf-syntax-ns#"
   xmlns:svg="http://www.w3.org/2000/svg"
   xmlns="http://www.w3.org/2000/svg"
   xmlns:sodipodi="http://sodipodi.sourceforge.net/DTD/sodipodi-0.dtd"
   xmlns:inkscape="http://www.inkscape.org/namespaces/inkscape"
   width="31.75mm"
   height="31.75mm"
   viewBox="0 0 31.75 31.75"
   version="1.1"
   id="svg9286"
   inkscape:version="0.92.1 r15371"
   sodipodi:docname="case_1_бухгалтерия.svg">
  <defs
     id="defs9280" />
  <sodipodi:namedview
     id="base"
     pagecolor="#ffffff"
     bordercolor="#666666"
     borderopacity="1.0"
     inkscape:pageopacity="0.0"
     inkscape:pageshadow="2"
     inkscape:zoom="0.35"
     inkscape:cx="1931.4286"
     inkscape:cy="-1025.7143"
     inkscape:document-units="mm"
     inkscape:current-layer="layer1"
     showgrid="false"
     inkscape:window-width="1920"
     inkscape:window-height="1058"
     inkscape:window-x="1912"
     inkscape:window-y="2"
     inkscape:window-maximized="1" />
  <metadata
     id="metadata9283">
    <rdf:RDF>
      <cc:Work
         rdf:about="">
        <dc:format>image/svg+xml</dc:format>
        <dc:type
           rdf:resource="http://purl.org/dc/dcmitype/StillImage" />
        <dc:title></dc:title>
      </cc:Work>
    </rdf:RDF>
  </metadata>
  <g
     inkscape:label="Layer 1"
     inkscape:groupmode="layer"
     id="layer1"
     transform="translate(541.2619,154.30357)">
    <circle
       style="fill:#ffffff;stroke-width:0.26458332"
       id="circle178"
       r="15.875"
       cy="-138.42857"
       cx="-525.3869" />
    <path
       style="fill:#caac7d;stroke-width:0.26458332"
       inkscape:connector-curvature="0"
       id="path180"
       d="m -518.28443,-133.04695 c 0.18415,-0.26458 0.29263,-0.58473 0.29263,-0.93133 v -0.32015 c 0,-0.89958 -0.73237,-1.62983 -1.63221,-1.62983 -0.89985,0 -1.63195,0.73025 -1.63195,1.62983 v 0.32015 c 0,0.3466 0.10847,0.66675 0.29262,0.93133 -0.63791,0.0185 -1.19935,0.34661 -1.54199,0.83609 -0.34263,-0.48948 -0.90434,-0.81757 -1.54199,-0.83609 0.18415,-0.26458 0.29237,-0.58473 0.29237,-0.93133 v -0.32015 c 0,-0.89958 -0.73211,-1.62983 -1.63195,-1.62983 -0.89985,0 -1.63195,0.73025 -1.63195,1.62983 v 0.32015 c 0,0.3466 0.10821,0.66675 0.29236,0.93133 -0.63765,0.0185 -1.19936,0.34661 -1.54199,0.83609 -0.34264,-0.48948 -0.90408,-0.81757 -1.54199,-0.83609 0.18415,-0.26458 0.29263,-0.58473 0.29263,-0.93133 v -0.32015 c 0,-0.89958 -0.73211,-1.62983 -1.63195,-1.62983 -0.89985,0 -1.63222,0.73025 -1.63222,1.62983 v 0.32015 c 0,0.3466 0.10848,0.66675 0.29263,0.93133 -1.04934,0.0318 -1.89336,0.8943 -1.89336,1.95263 v 1.30969 c 0,0.19579 0.15743,0.35189 0.35137,0.35189 h 5.76289 5.76315 5.76289 c 0.19394,0 0.35137,-0.1561 0.35137,-0.35189 v -1.30969 c 0,-1.05833 -0.84402,-1.92088 -1.89336,-1.95263 z m -13.79458,-1.25148 c 0,-0.51064 0.41672,-0.92868 0.92922,-0.92868 0.51223,0 0.92921,0.41804 0.92921,0.92868 v 0.32015 c 0,0.51329 -0.41698,0.93133 -0.92921,0.93133 -0.5125,0 -0.92922,-0.41804 -0.92922,-0.93133 z m 3.45916,4.1619 H -533.68 v -0.95779 c 0,-0.69056 0.56065,-1.25148 1.24962,-1.25148 h 0.92922 v 1.10596 c 0,0.19314 0.15716,0.35189 0.35137,0.35189 0.19394,0 0.35136,-0.15875 0.35136,-0.35189 v -1.10596 h 0.92922 c 0.68897,0 1.24936,0.56092 1.24936,1.25148 z m 2.30373,-4.1619 c 0,-0.51064 0.41672,-0.92868 0.92922,-0.92868 0.51249,0 0.92921,0.41804 0.92921,0.92868 v 0.32015 c 0,0.51329 -0.41672,0.93133 -0.92921,0.93133 -0.5125,0 -0.92922,-0.41804 -0.92922,-0.93133 z m 3.45916,4.1619 h -5.05989 v -0.95779 c 0,-0.69056 0.56039,-1.25148 1.24936,-1.25148 h 0.93372 v 1.10596 c 0,0.19314 0.15716,0.35189 0.35136,0.35189 0.19394,0 0.35137,-0.15875 0.35137,-0.35189 v -1.10596 h 0.92472 c 0.68897,0 1.24936,0.56092 1.24936,1.25148 z m 2.30373,-4.1619 c 0,-0.51064 0.41698,-0.92868 0.92922,-0.92868 0.51249,0 0.92921,0.41804 0.92921,0.92868 v 0.32015 c 0,0.51329 -0.41672,0.93133 -0.92921,0.93133 -0.51224,0 -0.92922,-0.41804 -0.92922,-0.93133 z m 3.45943,4.1619 h -5.06016 v -0.95779 c 0,-0.69056 0.56039,-1.25148 1.24936,-1.25148 h 0.93821 v 1.10596 c 0,0.19314 0.15717,0.35189 0.35137,0.35189 0.19421,0 0.35137,-0.15875 0.35137,-0.35189 v -1.10596 h 0.92022 c 0.68897,0 1.24963,0.56092 1.24963,1.25148 z" />
    <path
       style="fill:#caac7d;stroke-width:0.26458332"
       inkscape:connector-curvature="0"
       id="path182"
       d="m -523.51577,-137.93645 h -1.51977 v -0.96837 c 0,-0.19579 -0.15716,-0.3519 -0.35136,-0.3519 -0.19421,0 -0.35137,0.15611 -0.35137,0.3519 v 0.96837 h -5.41152 c -0.19421,0 -0.35137,0.15611 -0.35137,0.3519 v 0.80962 c 0,0.19315 0.15716,0.3519 0.35137,0.3519 0.19394,0 0.35136,-0.15875 0.35136,-0.3519 v -0.45772 h 5.06016 v 0.45772 c 0,0.19315 0.15716,0.3519 0.35137,0.3519 0.1942,0 0.35136,-0.15875 0.35136,-0.3519 v -0.45772 h 1.51977 c 0.1942,0 0.35137,-0.15875 0.35137,-0.3519 0,-0.19579 -0.15717,-0.3519 -0.35137,-0.3519 z" />
    <path
       style="fill:#caac7d;stroke-width:0.26458332"
       inkscape:connector-curvature="0"
       id="path184"
       d="m -521.9759,-137.83326 c -0.0653,-0.0661 -0.1561,-0.10319 -0.24844,-0.10319 -0.0923,0 -0.18309,0.037 -0.24844,0.10319 -0.0654,0.0661 -0.10293,0.15611 -0.10293,0.24871 0,0.0926 0.0376,0.18256 0.10293,0.24871 0.0653,0.0635 0.1561,0.10319 0.24844,0.10319 0.0923,0 0.18309,-0.0397 0.24844,-0.10319 0.0654,-0.0662 0.10293,-0.15611 0.10293,-0.24871 0,-0.0926 -0.0376,-0.18256 -0.10293,-0.24871 z" />
    <path
       style="fill:#caac7d;stroke-width:0.26458332"
       inkscape:connector-curvature="0"
       id="path186"
       d="m -519.61502,-137.93645 h -1.36181 c -0.1942,0 -0.35137,0.15611 -0.35137,0.3519 0,0.19315 0.15717,0.3519 0.35137,0.3519 h 1.01044 v 0.45772 c 0,0.19315 0.15717,0.3519 0.35137,0.3519 0.19421,0 0.35137,-0.15875 0.35137,-0.3519 v -0.80962 c 0,-0.19579 -0.15716,-0.3519 -0.35137,-0.3519 z" />
    <path
       style="fill:#caac7d;stroke-width:0.26458332"
       inkscape:connector-curvature="0"
       id="path188"
       d="m -521.7674,-147.4244 h -7.239 c -0.58129,0 -1.0541,0.4736 -1.0541,1.05304 v 5.34193 c 0,0.58209 0.47281,1.05569 1.0541,1.05569 h 7.239 c 0.58129,0 1.0541,-0.4736 1.0541,-1.05569 v -5.34193 c 0,-0.57944 -0.47281,-1.05304 -1.0541,-1.05304 z m 0.35136,6.39497 c 0,0.19315 -0.15769,0.3519 -0.35136,0.3519 h -7.239 c -0.19368,0 -0.35137,-0.15875 -0.35137,-0.3519 v -5.34193 c 0,-0.19315 0.15769,-0.34925 0.35137,-0.34925 h 7.239 c 0.19367,0 0.35136,0.1561 0.35136,0.34925 z" />
    <path
       style="fill:#caac7d;stroke-width:0.26458332"
       inkscape:connector-curvature="0"
       id="path190"
       d="m -522.11824,-145.73636 h -0.7874 c -0.19394,0 -0.35137,0.1561 -0.35137,0.35189 0,0.17463 0.1278,0.3175 0.29501,0.34661 l -1.93728,1.93675 -1.20597,-1.2065 c -0.13732,-0.13759 -0.35983,-0.13759 -0.49689,0 l -1.07129,1.07156 c -0.13732,0.13758 -0.13732,0.35983 0,0.49742 0.13732,0.13758 0.35983,0.13758 0.49688,0 l 0.82286,-0.82286 1.20597,1.2065 c 0.0685,0.0661 0.15848,0.10054 0.24844,0.10054 0.09,0 0.17992,-0.0344 0.24845,-0.10054 l 2.18598,-2.1881 c 0.027,0.16933 0.17172,0.29633 0.34661,0.29633 0.1942,0 0.35136,-0.1561 0.35136,-0.35189 v -0.78582 c 0,-0.19579 -0.15716,-0.35189 -0.35136,-0.35189 z" />
    <path
       style="fill:#caac7d;stroke-width:0.26458332"
       inkscape:connector-curvature="0"
       id="path192"
       d="m -527.98908,-142.42378 c -0.0656,-0.0661 -0.15584,-0.10319 -0.24845,-0.10319 -0.0926,0 -0.18309,0.037 -0.2487,0.10319 -0.0653,0.0661 -0.10266,0.1561 -0.10266,0.24871 0,0.0926 0.0373,0.18256 0.10266,0.24871 0.0656,0.0661 0.1561,0.10318 0.2487,0.10318 0.0926,0 0.18283,-0.037 0.24845,-0.10318 0.0653,-0.0662 0.10292,-0.15611 0.10292,-0.24871 0,-0.0926 -0.0376,-0.18256 -0.10292,-0.24871 z" />
    <path
       style="fill:#caac7d;stroke-width:0.26458332"
       inkscape:connector-curvature="0"
       id="path194"
       d="m -527.93802,-145.91628 c -0.0653,-0.0661 -0.15557,-0.10319 -0.24844,-0.10319 -0.0923,0 -0.18283,0.037 -0.24844,0.10319 -0.0654,0.0661 -0.10293,0.1561 -0.10293,0.24871 0,0.0926 0.0376,0.18256 0.10293,0.24871 0.0653,0.0661 0.1561,0.10318 0.24844,0.10318 0.0929,0 0.18309,-0.037 0.24844,-0.10318 0.0656,-0.0661 0.10293,-0.15611 0.10293,-0.24871 0,-0.0926 -0.0373,-0.18256 -0.10293,-0.24871 z" />
    <path
       style="fill:#caac7d;stroke-width:0.26458332"
       inkscape:connector-curvature="0"
       id="path196"
       d="m -526.6495,-145.91628 c -0.0653,-0.0661 -0.1561,-0.10319 -0.24844,-0.10319 -0.0923,0 -0.18309,0.037 -0.24844,0.10319 -0.0653,0.0661 -0.10293,0.1561 -0.10293,0.24871 0,0.0926 0.0376,0.18256 0.10293,0.24871 0.0653,0.0661 0.1561,0.10318 0.24844,0.10318 0.0923,0 0.18309,-0.037 0.24844,-0.10318 0.0653,-0.0661 0.10293,-0.15611 0.10293,-0.24871 0,-0.0926 -0.0376,-0.18256 -0.10293,-0.24871 z" />
    <path
       style="fill:#caac7d;stroke-width:0.26458332"
       inkscape:connector-curvature="0"
       id="path198"
       d="m -525.36098,-145.91628 c -0.0656,-0.0661 -0.1561,-0.10319 -0.24844,-0.10319 -0.0923,0 -0.18309,0.037 -0.24871,0.10319 -0.0654,0.0661 -0.10266,0.1561 -0.10266,0.24871 0,0.0926 0.0373,0.18256 0.10266,0.24871 0.0656,0.0661 0.15637,0.10318 0.24871,0.10318 0.0923,0 0.18309,-0.037 0.24844,-0.10318 0.0654,-0.0661 0.10293,-0.15611 0.10293,-0.24871 0,-0.0926 -0.0376,-0.18256 -0.10293,-0.24871 z" />
  </g>
</svg>
