<?xml version="1.0" encoding="UTF-8" standalone="no"?>
<svg
   xmlns:dc="http://purl.org/dc/elements/1.1/"
   xmlns:cc="http://creativecommons.org/ns#"
   xmlns:rdf="http://www.w3.org/1999/02/22-rdf-syntax-ns#"
   xmlns:svg="http://www.w3.org/2000/svg"
   xmlns="http://www.w3.org/2000/svg"
   xmlns:sodipodi="http://sodipodi.sourceforge.net/DTD/sodipodi-0.dtd"
   xmlns:inkscape="http://www.inkscape.org/namespaces/inkscape"
   width="16"
   height="17"
   viewBox="0 0 16 17"
   fill="none"
   version="1.1"
   id="svg4"
   sodipodi:docname="inst.svg"
   inkscape:version="0.92.1 r15371">
  <metadata
     id="metadata10">
    <rdf:RDF>
      <cc:Work
         rdf:about="">
        <dc:format>image/svg+xml</dc:format>
        <dc:type
           rdf:resource="http://purl.org/dc/dcmitype/StillImage" />
      </cc:Work>
    </rdf:RDF>
  </metadata>
  <defs
     id="defs8" />
  <sodipodi:namedview
     pagecolor="#ffffff"
     bordercolor="#666666"
     borderopacity="1"
     objecttolerance="10"
     gridtolerance="10"
     guidetolerance="10"
     inkscape:pageopacity="0"
     inkscape:pageshadow="2"
     inkscape:window-width="1920"
     inkscape:window-height="1058"
     id="namedview6"
     showgrid="false"
     inkscape:zoom="19.632612"
     inkscape:cx="-4.6778036"
     inkscape:cy="9.9721622"
     inkscape:window-x="1912"
     inkscape:window-y="2"
     inkscape:window-maximized="1"
     inkscape:current-layer="svg4" />
  <path
     d="m 8.0678186,5.0388845 c -0.72656,0 -1.40625,0.1875 -2.03906,0.5625 -0.60938,0.35156 -1.10156,0.84375 -1.47656,1.47656 -0.35157,0.60938 -0.52735,1.27735 -0.52735,2.00391 0,0.72656 0.17578,1.4062505 0.52735,2.0391005 0.375,0.6093 0.86718,1.1015 1.47656,1.4765 0.63281,0.3516 1.3125,0.5274 2.03906,0.5274 0.72656,0 1.39453,-0.1758 2.0039104,-0.5274 0.63279,-0.375 1.12499,-0.8672 1.47659,-1.4765 0.375,-0.63285 0.5625,-1.3125405 0.5625,-2.0391005 0,-0.72656 -0.1875,-1.39453 -0.5625,-2.00391 -0.3516,-0.63281 -0.8438,-1.125 -1.47659,-1.47656 -0.6093804,-0.375 -1.2773504,-0.5625 -2.0039104,-0.5625 z m 0,6.6796705 c -0.72656,0 -1.34766,-0.2578 -1.86328,-0.7734 -0.51563,-0.51564 -0.77344,-1.1367405 -0.77344,-1.8633005 0,-0.72656 0.25781,-1.34766 0.77344,-1.86328 0.51562,-0.51563 1.13672,-0.77344 1.86328,-0.77344 0.72656,0 1.34766,0.25781 1.86328,0.77344 0.5156204,0.51562 0.7734204,1.13672 0.7734204,1.86328 0,0.72656 -0.2578,1.3476605 -0.7734204,1.8633005 -0.51562,0.5156 -1.13672,0.7734 -1.86328,0.7734 z M 13.235819,4.8631045 c -0.0235,0.25781 -0.1289,0.48047 -0.3164,0.66797 -0.1641,0.1875 -0.375,0.28125 -0.6328,0.28125 -0.2579,0 -0.4805,-0.09375 -0.668,-0.28125 -0.1875,-0.1875 -0.2813,-0.41016 -0.2813,-0.66797 0,-0.25781 0.0938,-0.48047 0.2813,-0.66797 0.1875,-0.1875 0.4101,-0.28125 0.668,-0.28125 0.2578,0 0.4804,0.09375 0.6679,0.28125 0.1875,0.1875 0.2813,0.41016 0.2813,0.66797 z m 2.6718,0.94922 c -0.0468,-0.67969 -0.1523,-1.26563 -0.3164,-1.75781 -0.2109,-0.58594 -0.539,-1.08985 -0.9843,-1.51172 -0.4219,-0.44532 -0.9258,-0.77344 -1.5118,-0.984378 -0.4921,-0.164062 -1.0781,-0.257812 -1.7578,-0.28125 -0.6562,-0.046874 -1.7460604,-0.070312 -3.2695004,-0.070312 -1.52344,0 -2.625,0.023438 -3.30469,0.070312 -0.65625,0.023438 -1.23047,0.117188 -1.72265,0.28125 -0.58594,0.210938 -1.10157,0.539058 -1.54688,0.984378 -0.421874,0.42187 -0.73827994,0.92578 -0.94921794,1.51172 -0.164062,0.49218 -0.2695308,1.07812 -0.3164058,1.75781 -0.0234375,0.65625 -0.0351562,1.74609 -0.0351562,3.26953 0,1.5234405 0.0117187,2.6250005 0.0351562,3.3047005 0.046875,0.6562 0.1523438,1.2305 0.3164058,1.7226 0.210938,0.586 0.52734394,1.1016 0.94921794,1.5469 0.44531,0.4219 0.96094,0.7266 1.54688,0.9141 0.49218,0.1875 1.0664,0.2929 1.72265,0.3164 0.67969,0.0469 1.78125,0.0703 3.30469,0.0703 1.52344,0 2.6133004,-0.0234 3.2695004,-0.0703 0.6797,-0.0235 1.2657,-0.1172 1.7578,-0.2813 0.586,-0.2109 1.0899,-0.5273 1.5118,-0.9492 0.4453,-0.4453 0.7734,-0.9609 0.9843,-1.5469 0.1641,-0.4921 0.2578,-1.0664 0.2813,-1.7226 0.0469,-0.6797 0.0703,-1.78126 0.0703,-3.3047005 0,-1.52344 -0.0117,-2.61328 -0.0352,-3.26953 z m -1.6875,7.9101305 c -0.2812,0.7032 -0.7851,1.2071 -1.5117,1.5117 -0.375,0.1407 -1.0078,0.2344 -1.8984,0.2813 -0.4922,0.0234 -1.2187604,0.0352 -2.1797004,0.0352 h -1.125 c -0.9375,0 -1.66406,-0.0118 -2.17969,-0.0352 -0.86719,-0.0469 -1.5,-0.1406 -1.89843,-0.2813 -0.70313,-0.2812 -1.20704,-0.7851 -1.51172,-1.5117 -0.14063,-0.3984 -0.23438,-1.0312 -0.28125,-1.8984 -0.02344,-0.5156 -0.03516,-1.2422 -0.03516,-2.1797005 v -1.125 c 0,-0.9375 0.01172,-1.66406 0.03516,-2.17969 0.04687,-0.89062 0.14062,-1.52343 0.28125,-1.89843 0.28125,-0.72657 0.78515,-1.23047 1.51172,-1.51172 0.39843,-0.14063 1.03124,-0.23438 1.89843,-0.28125 0.51563,-0.02344 1.24219,-0.03516 2.17969,-0.03516 h 1.125 c 0.9375,0 1.6641004,0.01172 2.1797004,0.03516 0.8906,0.04687 1.5234,0.14062 1.8984,0.28125 0.7266,0.28125 1.2305,0.78515 1.5117,1.51172 0.1407,0.375 0.2344,1.00781 0.2813,1.89843 0.0234,0.49219 0.0352,1.21875 0.0352,2.17969 v 1.125 c 0,0.9375005 -0.0118,1.6641005 -0.0352,2.1797005 -0.0469,0.8672 -0.1406,1.5 -0.2813,1.8984 z"
     id="path2"
     inkscape:connector-curvature="0"
     style="fill:#caac7d" />
</svg>
