<svg width="12" height="19" viewBox="0 0 12 19" fill="none" xmlns="http://www.w3.org/2000/svg">
<path d="M9.66797 11.9922C8.89453 12.4844 7.83984 12.8008 6.50391 12.9414L9.91406 16.3516C10.2188 16.6562 10.3008 16.9961 10.1602 17.3711C10.0195 17.7695 9.75 18.0391 9.35156 18.1797C8.97656 18.3438 8.63672 18.2734 8.33203 17.9688L5.625 15.2617L2.95312 17.9336C2.64844 18.2383 2.29688 18.3203 1.89844 18.1797C1.5 18.0391 1.23047 17.7695 1.08984 17.3711C0.949219 16.9961 1.04297 16.6562 1.37109 16.3516L4.78125 12.9414C3.39844 12.8008 2.33203 12.4844 1.58203 11.9922C0.949219 11.5703 0.550781 11.2422 0.386719 11.0078C0.175781 10.7031 0.175781 10.3398 0.386719 9.91797C0.527344 9.61328 0.761719 9.42578 1.08984 9.35547C1.46484 9.26172 1.86328 9.37891 2.28516 9.70703L2.70703 9.98828C3.05859 10.1758 3.43359 10.3398 3.83203 10.4805C4.41797 10.6445 5.01562 10.7266 5.625 10.7266C6.23438 10.7266 6.83203 10.6445 7.41797 10.4805C7.81641 10.3398 8.19141 10.1758 8.54297 9.98828L8.96484 9.70703C9.38672 9.37891 9.79688 9.26172 10.1953 9.35547C10.5 9.42578 10.7344 9.61328 10.8984 9.91797C11.0859 10.3398 11.0742 10.7031 10.8633 11.0078C10.6992 11.2422 10.3008 11.5703 9.66797 11.9922ZM1.05469 4.82031C1.05469 3.97656 1.25391 3.21484 1.65234 2.53516C2.07422 1.83203 2.63672 1.28125 3.33984 0.882812C4.04297 0.460938 4.80469 0.25 5.625 0.25C6.44531 0.25 7.20703 0.460938 7.91016 0.882812C8.61328 1.28125 9.16406 1.83203 9.5625 2.53516C9.98438 3.21484 10.1953 3.97656 10.1953 4.82031C10.1953 5.64062 9.98438 6.40234 9.5625 7.10547C9.16406 7.78516 8.61328 8.33594 7.91016 8.75781C7.20703 9.15625 6.44531 9.35547 5.625 9.35547C4.80469 9.35547 4.04297 9.15625 3.33984 8.75781C2.63672 8.33594 2.07422 7.78516 1.65234 7.10547C1.25391 6.40234 1.05469 5.64062 1.05469 4.82031ZM3.375 4.82031C3.375 5.42969 3.59766 5.95703 4.04297 6.40234C4.48828 6.82422 5.01562 7.03516 5.625 7.03516C6.23438 7.03516 6.76172 6.82422 7.20703 6.40234C7.65234 5.95703 7.875 5.42969 7.875 4.82031C7.875 4.1875 7.65234 3.66016 7.20703 3.23828C6.76172 2.79297 6.23438 2.57031 5.625 2.57031C5.01562 2.57031 4.48828 2.79297 4.04297 3.23828C3.59766 3.66016 3.375 4.1875 3.375 4.82031Z" fill="#CAAC7D"/>
</svg>
