<svg width="20" height="12" viewBox="0 0 20 12" fill="none" xmlns="http://www.w3.org/2000/svg">
<path d="M19.1602 1.39844C19.3008 0.882812 19.0898 0.625 18.5273 0.625H16.4531C16.0312 0.625 15.7383 0.824219 15.5742 1.22266L15.2227 1.92578C14.9414 2.53516 14.6484 3.09766 14.3438 3.61328C13.8984 4.33984 13.4531 4.94922 13.0078 5.44141C12.7734 5.69922 12.5859 5.875 12.4453 5.96875C12.3047 6.03906 12.1758 6.07422 12.0586 6.07422C11.9648 6.07422 11.8828 6.02734 11.8125 5.93359C11.7422 5.83984 11.707 5.6875 11.707 5.47656V1.39844C11.707 1.11719 11.6602 0.917969 11.5664 0.800781C11.4961 0.683594 11.3555 0.625 11.1445 0.625H7.875C7.73438 0.625 7.60547 0.671875 7.48828 0.765625C7.39453 0.859375 7.34766 0.976562 7.34766 1.11719C7.34766 1.23437 7.42969 1.39844 7.59375 1.60938C7.75781 1.79687 7.875 1.97266 7.94531 2.13672C8.08594 2.41797 8.16797 2.74609 8.19141 3.12109V6.17969C8.19141 6.48438 8.15625 6.69531 8.08594 6.8125C8.03906 6.90625 7.94531 6.95312 7.80469 6.95312C7.57031 6.95312 7.24219 6.69531 6.82031 6.17969C6.39844 5.66406 5.97656 4.99609 5.55469 4.17578C5.08594 3.28516 4.6875 2.37109 4.35938 1.43359C4.26562 1.12891 4.14844 0.917969 4.00781 0.800781C3.89062 0.683594 3.70312 0.625 3.44531 0.625H1.37109C0.902344 0.625 0.667969 0.824219 0.667969 1.22266C0.667969 1.45703 0.75 1.86719 0.914062 2.45312C1.17188 3.17969 1.51172 3.96484 1.93359 4.80859C2.47266 5.91016 3.14062 7 3.9375 8.07812C4.78125 9.29688 5.76562 10.2344 6.89062 10.8906C8.01562 11.5469 9.12891 11.875 10.2305 11.875C10.8633 11.875 11.2852 11.8047 11.4961 11.6641C11.6602 11.5469 11.7305 11.3477 11.707 11.0664V10.1523C11.707 9.58984 11.7188 9.22656 11.7422 9.0625C11.7422 8.82812 11.7773 8.67578 11.8477 8.60547C11.9414 8.53516 12.082 8.5 12.2695 8.5C12.7148 8.5 13.4062 8.94531 14.3438 9.83594C14.625 10.1172 14.9414 10.4688 15.293 10.8906C15.668 11.2891 15.9258 11.5352 16.0664 11.6289C16.2773 11.793 16.5117 11.875 16.7695 11.875H18.8438C19.125 11.875 19.3242 11.8047 19.4414 11.6641C19.582 11.5 19.6172 11.2773 19.5469 10.9961C19.3359 10.3398 18.3867 9.14453 16.6992 7.41016L16.3828 7.05859C16.2422 6.89453 16.1719 6.75391 16.1719 6.63672C16.1719 6.51953 16.2422 6.35547 16.3828 6.14453C16.4062 6.12109 16.6289 5.80469 17.0508 5.19531C17.543 4.42188 17.9648 3.74219 18.3164 3.15625C18.8086 2.33594 19.0898 1.75 19.1602 1.39844Z" fill="#CAAC7D"/>
</svg>
